 0
SECTION
 2
HEADER
 9
$ACADVER
 1
AC1009
 0
ENDSEC
 0
SECTION
 2
TABLES
 0
TABLE
 2
LTYPE
 70
1
 0
LTYPE
 2
CONTINUOUS
 70
64
 3
solid line
 72
65
 73
0
 40
0.0
 0
ENDTAB
 0
TABLE
 2
LAYER
 70
6
 0
LAYER
 2
0
 70
0
 62
7
 6
CONTINUOUS
 0
LAYER
 2
BUILDING
 70
64
 62
7
 6
CONTINUOUS
 0
LAYER
 2
CONNECT
 70
64
 62
41
 6
CONTINUOUS
 0
LAYER
 2
BOOLE
 70
64
 62
51
 6
CONTINUOUS
 0
LAYER
 2
BUILDING_1
 70
64
 62
51
 6
CONTINUOUS
 0
LAYER
 2
NULL
 70
64
 62
7
 6
CONTINUOUS
 0
LAYER
 2
CUBE
 70
64
 62
7
 6
CONTINUOUS
 0
LAYER
 2
CUBE_1
 70
64
 62
7
 6
CONTINUOUS
 0
LAYER
 2
CUBE_2
 70
64
 62
7
 6
CONTINUOUS
 0
LAYER
 2
CUBE_11
 70
64
 62
7
 6
CONTINUOUS
 0
LAYER
 2
CUBE_10
 70
64
 62
7
 6
CONTINUOUS
 0
LAYER
 2
CUBE_9
 70
64
 62
7
 6
CONTINUOUS
 0
LAYER
 2
CUBE_8
 70
64
 62
7
 6
CONTINUOUS
 0
LAYER
 2
CUBE_7
 70
64
 62
7
 6
CONTINUOUS
 0
LAYER
 2
CUBE_6
 70
64
 62
7
 6
CONTINUOUS
 0
LAYER
 2
CUBE_5
 70
64
 62
7
 6
CONTINUOUS
 0
LAYER
 2
CUBE_4
 70
64
 62
7
 6
CONTINUOUS
 0
LAYER
 2
CUBE_3
 70
64
 62
7
 6
CONTINUOUS
 0
LAYER
 2
CUBE_2_1
 70
64
 62
7
 6
CONTINUOUS
 0
LAYER
 2
CUBE_1_1
 70
64
 62
7
 6
CONTINUOUS
 0
LAYER
 2
CUBE_12
 70
64
 62
7
 6
CONTINUOUS
 0
LAYER
 2
CHIMENEY_1
 70
64
 62
51
 6
CONTINUOUS
 0
ENDTAB
 0
ENDSEC
 0
SECTION
 2
BLOCKS
 0
ENDSEC
 0
SECTION
 2
ENTITIES
 0
POLYLINE
 8
CONNECT
 66
1
 10
0.0
 20
0.0
 30
0.0
 70
64
 71
200
 72
150
 0
VERTEX
 8
CONNECT
 10
8.2421
 20
-4.8588
 30
5.4148
 70
192
 0
VERTEX
 8
CONNECT
 10
8.2421
 20
-4.8588
 30
5.4648
 70
192
 0
VERTEX
 8
CONNECT
 10
8.7588
 20
-4.8588
 30
5.4148
 70
192
 0
VERTEX
 8
CONNECT
 10
8.7588
 20
-4.8588
 30
5.4648
 70
192
 0
VERTEX
 8
CONNECT
 10
8.7588
 20
-4.7088
 30
5.4148
 70
192
 0
VERTEX
 8
CONNECT
 10
8.7588
 20
-4.7088
 30
5.4648
 70
192
 0
VERTEX
 8
CONNECT
 10
8.2421
 20
-4.7088
 30
5.4148
 70
192
 0
VERTEX
 8
CONNECT
 10
8.2421
 20
-4.7088
 30
5.4648
 70
192
 0
VERTEX
 8
CONNECT
 10
8.2421
 20
-4.8588
 30
6.1412
 70
192
 0
VERTEX
 8
CONNECT
 10
8.2421
 20
-4.8588
 30
6.1912
 70
192
 0
VERTEX
 8
CONNECT
 10
8.7588
 20
-4.8588
 30
6.1412
 70
192
 0
VERTEX
 8
CONNECT
 10
8.7588
 20
-4.8588
 30
6.1912
 70
192
 0
VERTEX
 8
CONNECT
 10
8.7588
 20
-4.7088
 30
6.1412
 70
192
 0
VERTEX
 8
CONNECT
 10
8.7588
 20
-4.7088
 30
6.1912
 70
192
 0
VERTEX
 8
CONNECT
 10
8.2421
 20
-4.7088
 30
6.1412
 70
192
 0
VERTEX
 8
CONNECT
 10
8.2421
 20
-4.7088
 30
6.1912
 70
192
 0
VERTEX
 8
CONNECT
 10
8.2421
 20
-4.8588
 30
6.8387
 70
192
 0
VERTEX
 8
CONNECT
 10
8.2421
 20
-4.8588
 30
6.8887
 70
192
 0
VERTEX
 8
CONNECT
 10
8.7588
 20
-4.8588
 30
6.8387
 70
192
 0
VERTEX
 8
CONNECT
 10
8.7588
 20
-4.8588
 30
6.8887
 70
192
 0
VERTEX
 8
CONNECT
 10
8.7588
 20
-4.7088
 30
6.8387
 70
192
 0
VERTEX
 8
CONNECT
 10
8.7588
 20
-4.7088
 30
6.8887
 70
192
 0
VERTEX
 8
CONNECT
 10
8.2421
 20
-4.7088
 30
6.8387
 70
192
 0
VERTEX
 8
CONNECT
 10
8.2421
 20
-4.7088
 30
6.8887
 70
192
 0
VERTEX
 8
CONNECT
 10
8.2421
 20
-4.8588
 30
7.5651
 70
192
 0
VERTEX
 8
CONNECT
 10
8.2421
 20
-4.8588
 30
7.6151
 70
192
 0
VERTEX
 8
CONNECT
 10
8.7588
 20
-4.8588
 30
7.5651
 70
192
 0
VERTEX
 8
CONNECT
 10
8.7588
 20
-4.8588
 30
7.6151
 70
192
 0
VERTEX
 8
CONNECT
 10
8.7588
 20
-4.7088
 30
7.5651
 70
192
 0
VERTEX
 8
CONNECT
 10
8.7588
 20
-4.7088
 30
7.6151
 70
192
 0
VERTEX
 8
CONNECT
 10
8.2421
 20
-4.7088
 30
7.5651
 70
192
 0
VERTEX
 8
CONNECT
 10
8.2421
 20
-4.7088
 30
7.6151
 70
192
 0
VERTEX
 8
CONNECT
 10
8.2421
 20
-7.5859
 30
6.8387
 70
192
 0
VERTEX
 8
CONNECT
 10
8.2421
 20
-7.5859
 30
6.8887
 70
192
 0
VERTEX
 8
CONNECT
 10
8.7588
 20
-7.5859
 30
6.8387
 70
192
 0
VERTEX
 8
CONNECT
 10
8.7588
 20
-7.5859
 30
6.8887
 70
192
 0
VERTEX
 8
CONNECT
 10
8.7588
 20
-7.436
 30
6.8387
 70
192
 0
VERTEX
 8
CONNECT
 10
8.7588
 20
-7.436
 30
6.8887
 70
192
 0
VERTEX
 8
CONNECT
 10
8.2421
 20
-7.436
 30
6.8387
 70
192
 0
VERTEX
 8
CONNECT
 10
8.2421
 20
-7.436
 30
6.8887
 70
192
 0
VERTEX
 8
CONNECT
 10
8.2421
 20
-7.5859
 30
7.5651
 70
192
 0
VERTEX
 8
CONNECT
 10
8.2421
 20
-7.5859
 30
7.6151
 70
192
 0
VERTEX
 8
CONNECT
 10
8.7588
 20
-7.5859
 30
7.5651
 70
192
 0
VERTEX
 8
CONNECT
 10
8.7588
 20
-7.5859
 30
7.6151
 70
192
 0
VERTEX
 8
CONNECT
 10
8.7588
 20
-7.436
 30
7.5651
 70
192
 0
VERTEX
 8
CONNECT
 10
8.7588
 20
-7.436
 30
7.6151
 70
192
 0
VERTEX
 8
CONNECT
 10
8.2421
 20
-7.436
 30
7.5651
 70
192
 0
VERTEX
 8
CONNECT
 10
8.2421
 20
-7.436
 30
7.6151
 70
192
 0
VERTEX
 8
CONNECT
 10
8.2421
 20
-7.5859
 30
5.4387
 70
192
 0
VERTEX
 8
CONNECT
 10
8.2421
 20
-7.5859
 30
5.4887
 70
192
 0
VERTEX
 8
CONNECT
 10
8.7588
 20
-7.5859
 30
5.4387
 70
192
 0
VERTEX
 8
CONNECT
 10
8.7588
 20
-7.5859
 30
5.4887
 70
192
 0
VERTEX
 8
CONNECT
 10
8.7588
 20
-7.436
 30
5.4387
 70
192
 0
VERTEX
 8
CONNECT
 10
8.7588
 20
-7.436
 30
5.4887
 70
192
 0
VERTEX
 8
CONNECT
 10
8.2421
 20
-7.436
 30
5.4387
 70
192
 0
VERTEX
 8
CONNECT
 10
8.2421
 20
-7.436
 30
5.4887
 70
192
 0
VERTEX
 8
CONNECT
 10
8.2421
 20
-7.5859
 30
6.1651
 70
192
 0
VERTEX
 8
CONNECT
 10
8.2421
 20
-7.5859
 30
6.2151
 70
192
 0
VERTEX
 8
CONNECT
 10
8.7588
 20
-7.5859
 30
6.1651
 70
192
 0
VERTEX
 8
CONNECT
 10
8.7588
 20
-7.5859
 30
6.2151
 70
192
 0
VERTEX
 8
CONNECT
 10
8.7588
 20
-7.436
 30
6.1651
 70
192
 0
VERTEX
 8
CONNECT
 10
8.7588
 20
-7.436
 30
6.2151
 70
192
 0
VERTEX
 8
CONNECT
 10
8.2421
 20
-7.436
 30
6.1651
 70
192
 0
VERTEX
 8
CONNECT
 10
8.2421
 20
-7.436
 30
6.2151
 70
192
 0
VERTEX
 8
CONNECT
 10
7.3488
 20
-6.9571
 30
6.8387
 70
192
 0
VERTEX
 8
CONNECT
 10
7.3488
 20
-6.9571
 30
6.8887
 70
192
 0
VERTEX
 8
CONNECT
 10
7.3488
 20
-6.4404
 30
6.8387
 70
192
 0
VERTEX
 8
CONNECT
 10
7.3488
 20
-6.4404
 30
6.8887
 70
192
 0
VERTEX
 8
CONNECT
 10
7.1989
 20
-6.4404
 30
6.8387
 70
192
 0
VERTEX
 8
CONNECT
 10
7.1989
 20
-6.4404
 30
6.8887
 70
192
 0
VERTEX
 8
CONNECT
 10
7.1989
 20
-6.9571
 30
6.8387
 70
192
 0
VERTEX
 8
CONNECT
 10
7.1989
 20
-6.9571
 30
6.8887
 70
192
 0
VERTEX
 8
CONNECT
 10
7.3488
 20
-6.9571
 30
7.5651
 70
192
 0
VERTEX
 8
CONNECT
 10
7.3488
 20
-6.9571
 30
7.6151
 70
192
 0
VERTEX
 8
CONNECT
 10
7.3488
 20
-6.4404
 30
7.5651
 70
192
 0
VERTEX
 8
CONNECT
 10
7.3488
 20
-6.4404
 30
7.6151
 70
192
 0
VERTEX
 8
CONNECT
 10
7.1989
 20
-6.4404
 30
7.5651
 70
192
 0
VERTEX
 8
CONNECT
 10
7.1989
 20
-6.4404
 30
7.6151
 70
192
 0
VERTEX
 8
CONNECT
 10
7.1989
 20
-6.9571
 30
7.5651
 70
192
 0
VERTEX
 8
CONNECT
 10
7.1989
 20
-6.9571
 30
7.6151
 70
192
 0
VERTEX
 8
CONNECT
 10
7.3488
 20
-5.8369
 30
6.8387
 70
192
 0
VERTEX
 8
CONNECT
 10
7.3488
 20
-5.8369
 30
6.8887
 70
192
 0
VERTEX
 8
CONNECT
 10
7.3488
 20
-5.3203
 30
6.8387
 70
192
 0
VERTEX
 8
CONNECT
 10
7.3488
 20
-5.3203
 30
6.8887
 70
192
 0
VERTEX
 8
CONNECT
 10
7.1989
 20
-5.3203
 30
6.8387
 70
192
 0
VERTEX
 8
CONNECT
 10
7.1989
 20
-5.3203
 30
6.8887
 70
192
 0
VERTEX
 8
CONNECT
 10
7.1989
 20
-5.8369
 30
6.8387
 70
192
 0
VERTEX
 8
CONNECT
 10
7.1989
 20
-5.8369
 30
6.8887
 70
192
 0
VERTEX
 8
CONNECT
 10
7.3488
 20
-5.8369
 30
7.5651
 70
192
 0
VERTEX
 8
CONNECT
 10
7.3488
 20
-5.8369
 30
7.6151
 70
192
 0
VERTEX
 8
CONNECT
 10
7.3488
 20
-5.3203
 30
7.5651
 70
192
 0
VERTEX
 8
CONNECT
 10
7.3488
 20
-5.3203
 30
7.6151
 70
192
 0
VERTEX
 8
CONNECT
 10
7.1989
 20
-5.3203
 30
7.5651
 70
192
 0
VERTEX
 8
CONNECT
 10
7.1989
 20
-5.3203
 30
7.6151
 70
192
 0
VERTEX
 8
CONNECT
 10
7.1989
 20
-5.8369
 30
7.5651
 70
192
 0
VERTEX
 8
CONNECT
 10
7.1989
 20
-5.8369
 30
7.6151
 70
192
 0
VERTEX
 8
CONNECT
 10
7.3488
 20
-5.8369
 30
5.4564
 70
192
 0
VERTEX
 8
CONNECT
 10
7.3488
 20
-5.8369
 30
5.5064
 70
192
 0
VERTEX
 8
CONNECT
 10
7.3488
 20
-5.3203
 30
5.4564
 70
192
 0
VERTEX
 8
CONNECT
 10
7.3488
 20
-5.3203
 30
5.5064
 70
192
 0
VERTEX
 8
CONNECT
 10
7.1989
 20
-5.3203
 30
5.4564
 70
192
 0
VERTEX
 8
CONNECT
 10
7.1989
 20
-5.3203
 30
5.5064
 70
192
 0
VERTEX
 8
CONNECT
 10
7.1989
 20
-5.8369
 30
5.4564
 70
192
 0
VERTEX
 8
CONNECT
 10
7.1989
 20
-5.8369
 30
5.5064
 70
192
 0
VERTEX
 8
CONNECT
 10
7.3488
 20
-5.8369
 30
6.1829
 70
192
 0
VERTEX
 8
CONNECT
 10
7.3488
 20
-5.8369
 30
6.2329
 70
192
 0
VERTEX
 8
CONNECT
 10
7.3488
 20
-5.3203
 30
6.1829
 70
192
 0
VERTEX
 8
CONNECT
 10
7.3488
 20
-5.3203
 30
6.2329
 70
192
 0
VERTEX
 8
CONNECT
 10
7.1989
 20
-5.3203
 30
6.1829
 70
192
 0
VERTEX
 8
CONNECT
 10
7.1989
 20
-5.3203
 30
6.2329
 70
192
 0
VERTEX
 8
CONNECT
 10
7.1989
 20
-5.8369
 30
6.1829
 70
192
 0
VERTEX
 8
CONNECT
 10
7.1989
 20
-5.8369
 30
6.2329
 70
192
 0
VERTEX
 8
CONNECT
 10
7.3488
 20
-6.9539
 30
5.4564
 70
192
 0
VERTEX
 8
CONNECT
 10
7.3488
 20
-6.9539
 30
5.5064
 70
192
 0
VERTEX
 8
CONNECT
 10
7.3488
 20
-6.4372
 30
5.4564
 70
192
 0
VERTEX
 8
CONNECT
 10
7.3488
 20
-6.4372
 30
5.5064
 70
192
 0
VERTEX
 8
CONNECT
 10
7.1989
 20
-6.4372
 30
5.4564
 70
192
 0
VERTEX
 8
CONNECT
 10
7.1989
 20
-6.4372
 30
5.5064
 70
192
 0
VERTEX
 8
CONNECT
 10
7.1989
 20
-6.9539
 30
5.4564
 70
192
 0
VERTEX
 8
CONNECT
 10
7.1989
 20
-6.9539
 30
5.5064
 70
192
 0
VERTEX
 8
CONNECT
 10
7.3488
 20
-6.9539
 30
6.1829
 70
192
 0
VERTEX
 8
CONNECT
 10
7.3488
 20
-6.9539
 30
6.2329
 70
192
 0
VERTEX
 8
CONNECT
 10
7.3488
 20
-6.4372
 30
6.1829
 70
192
 0
VERTEX
 8
CONNECT
 10
7.3488
 20
-6.4372
 30
6.2329
 70
192
 0
VERTEX
 8
CONNECT
 10
7.1989
 20
-6.4372
 30
6.1829
 70
192
 0
VERTEX
 8
CONNECT
 10
7.1989
 20
-6.4372
 30
6.2329
 70
192
 0
VERTEX
 8
CONNECT
 10
7.1989
 20
-6.9539
 30
6.1829
 70
192
 0
VERTEX
 8
CONNECT
 10
7.1989
 20
-6.9539
 30
6.2329
 70
192
 0
VERTEX
 8
CONNECT
 10
9.8168
 20
-6.9571
 30
6.8387
 70
192
 0
VERTEX
 8
CONNECT
 10
9.8168
 20
-6.9571
 30
6.8887
 70
192
 0
VERTEX
 8
CONNECT
 10
9.8168
 20
-6.4404
 30
6.8387
 70
192
 0
VERTEX
 8
CONNECT
 10
9.8168
 20
-6.4404
 30
6.8887
 70
192
 0
VERTEX
 8
CONNECT
 10
9.6668
 20
-6.4404
 30
6.8387
 70
192
 0
VERTEX
 8
CONNECT
 10
9.6668
 20
-6.4404
 30
6.8887
 70
192
 0
VERTEX
 8
CONNECT
 10
9.6668
 20
-6.9571
 30
6.8387
 70
192
 0
VERTEX
 8
CONNECT
 10
9.6668
 20
-6.9571
 30
6.8887
 70
192
 0
VERTEX
 8
CONNECT
 10
9.8168
 20
-6.9571
 30
7.5651
 70
192
 0
VERTEX
 8
CONNECT
 10
9.8168
 20
-6.9571
 30
7.6151
 70
192
 0
VERTEX
 8
CONNECT
 10
9.8168
 20
-6.4404
 30
7.5651
 70
192
 0
VERTEX
 8
CONNECT
 10
9.8168
 20
-6.4404
 30
7.6151
 70
192
 0
VERTEX
 8
CONNECT
 10
9.6668
 20
-6.4404
 30
7.5651
 70
192
 0
VERTEX
 8
CONNECT
 10
9.6668
 20
-6.4404
 30
7.6151
 70
192
 0
VERTEX
 8
CONNECT
 10
9.6668
 20
-6.9571
 30
7.5651
 70
192
 0
VERTEX
 8
CONNECT
 10
9.6668
 20
-6.9571
 30
7.6151
 70
192
 0
VERTEX
 8
CONNECT
 10
9.8168
 20
-5.8369
 30
6.8387
 70
192
 0
VERTEX
 8
CONNECT
 10
9.8168
 20
-5.8369
 30
6.8887
 70
192
 0
VERTEX
 8
CONNECT
 10
9.8168
 20
-5.3203
 30
6.8387
 70
192
 0
VERTEX
 8
CONNECT
 10
9.8168
 20
-5.3203
 30
6.8887
 70
192
 0
VERTEX
 8
CONNECT
 10
9.6668
 20
-5.3203
 30
6.8387
 70
192
 0
VERTEX
 8
CONNECT
 10
9.6668
 20
-5.3203
 30
6.8887
 70
192
 0
VERTEX
 8
CONNECT
 10
9.6668
 20
-5.8369
 30
6.8387
 70
192
 0
VERTEX
 8
CONNECT
 10
9.6668
 20
-5.8369
 30
6.8887
 70
192
 0
VERTEX
 8
CONNECT
 10
9.8168
 20
-5.8369
 30
7.5651
 70
192
 0
VERTEX
 8
CONNECT
 10
9.8168
 20
-5.8369
 30
7.6151
 70
192
 0
VERTEX
 8
CONNECT
 10
9.8168
 20
-5.3203
 30
7.5651
 70
192
 0
VERTEX
 8
CONNECT
 10
9.8168
 20
-5.3203
 30
7.6151
 70
192
 0
VERTEX
 8
CONNECT
 10
9.6668
 20
-5.3203
 30
7.5651
 70
192
 0
VERTEX
 8
CONNECT
 10
9.6668
 20
-5.3203
 30
7.6151
 70
192
 0
VERTEX
 8
CONNECT
 10
9.6668
 20
-5.8369
 30
7.5651
 70
192
 0
VERTEX
 8
CONNECT
 10
9.6668
 20
-5.8369
 30
7.6151
 70
192
 0
VERTEX
 8
CONNECT
 10
9.8168
 20
-5.8369
 30
5.4564
 70
192
 0
VERTEX
 8
CONNECT
 10
9.8168
 20
-5.8369
 30
5.5064
 70
192
 0
VERTEX
 8
CONNECT
 10
9.8168
 20
-5.3203
 30
5.4564
 70
192
 0
VERTEX
 8
CONNECT
 10
9.8168
 20
-5.3203
 30
5.5064
 70
192
 0
VERTEX
 8
CONNECT
 10
9.6668
 20
-5.3203
 30
5.4564
 70
192
 0
VERTEX
 8
CONNECT
 10
9.6668
 20
-5.3203
 30
5.5064
 70
192
 0
VERTEX
 8
CONNECT
 10
9.6668
 20
-5.8369
 30
5.4564
 70
192
 0
VERTEX
 8
CONNECT
 10
9.6668
 20
-5.8369
 30
5.5064
 70
192
 0
VERTEX
 8
CONNECT
 10
9.8168
 20
-5.8369
 30
6.1829
 70
192
 0
VERTEX
 8
CONNECT
 10
9.8168
 20
-5.8369
 30
6.2329
 70
192
 0
VERTEX
 8
CONNECT
 10
9.8168
 20
-5.3203
 30
6.1829
 70
192
 0
VERTEX
 8
CONNECT
 10
9.8168
 20
-5.3203
 30
6.2329
 70
192
 0
VERTEX
 8
CONNECT
 10
9.6668
 20
-5.3203
 30
6.1829
 70
192
 0
VERTEX
 8
CONNECT
 10
9.6668
 20
-5.3203
 30
6.2329
 70
192
 0
VERTEX
 8
CONNECT
 10
9.6668
 20
-5.8369
 30
6.1829
 70
192
 0
VERTEX
 8
CONNECT
 10
9.6668
 20
-5.8369
 30
6.2329
 70
192
 0
VERTEX
 8
CONNECT
 10
9.8168
 20
-6.9539
 30
5.4564
 70
192
 0
VERTEX
 8
CONNECT
 10
9.8168
 20
-6.9539
 30
5.5064
 70
192
 0
VERTEX
 8
CONNECT
 10
9.8168
 20
-6.4372
 30
5.4564
 70
192
 0
VERTEX
 8
CONNECT
 10
9.8168
 20
-6.4372
 30
5.5064
 70
192
 0
VERTEX
 8
CONNECT
 10
9.6668
 20
-6.4372
 30
5.4564
 70
192
 0
VERTEX
 8
CONNECT
 10
9.6668
 20
-6.4372
 30
5.5064
 70
192
 0
VERTEX
 8
CONNECT
 10
9.6668
 20
-6.9539
 30
5.4564
 70
192
 0
VERTEX
 8
CONNECT
 10
9.6668
 20
-6.9539
 30
5.5064
 70
192
 0
VERTEX
 8
CONNECT
 10
9.8168
 20
-6.9539
 30
6.1829
 70
192
 0
VERTEX
 8
CONNECT
 10
9.8168
 20
-6.9539
 30
6.2329
 70
192
 0
VERTEX
 8
CONNECT
 10
9.8168
 20
-6.4372
 30
6.1829
 70
192
 0
VERTEX
 8
CONNECT
 10
9.8168
 20
-6.4372
 30
6.2329
 70
192
 0
VERTEX
 8
CONNECT
 10
9.6668
 20
-6.4372
 30
6.1829
 70
192
 0
VERTEX
 8
CONNECT
 10
9.6668
 20
-6.4372
 30
6.2329
 70
192
 0
VERTEX
 8
CONNECT
 10
9.6668
 20
-6.9539
 30
6.1829
 70
192
 0
VERTEX
 8
CONNECT
 10
9.6668
 20
-6.9539
 30
6.2329
 70
192
 0
VERTEX
 8
CONNECT
 10
9.8168
 20
-6.5107
 30
4.8061
 70
192
 0
VERTEX
 8
CONNECT
 10
9.8168
 20
-6.5107
 30
4.8561
 70
192
 0
VERTEX
 8
CONNECT
 10
9.8168
 20
-5.8082
 30
4.8061
 70
192
 0
VERTEX
 8
CONNECT
 10
9.8168
 20
-5.8082
 30
4.8561
 70
192
 0
VERTEX
 8
CONNECT
 10
9.6668
 20
-5.8082
 30
4.8061
 70
192
 0
VERTEX
 8
CONNECT
 10
9.6668
 20
-5.8082
 30
4.8561
 70
192
 0
VERTEX
 8
CONNECT
 10
9.6668
 20
-6.5107
 30
4.8061
 70
192
 0
VERTEX
 8
CONNECT
 10
9.6668
 20
-6.5107
 30
4.8561
 70
192
 0
VERTEX
 8
CONNECT
 10
0
 20
0
 30
0
 70
128
 71
1
 72
2
 73
4
 74
3
 0
VERTEX
 8
CONNECT
 10
0
 20
0
 30
0
 70
128
 71
3
 72
4
 73
6
 74
5
 0
VERTEX
 8
CONNECT
 10
0
 20
0
 30
0
 70
128
 71
5
 72
6
 73
8
 74
7
 0
VERTEX
 8
CONNECT
 10
0
 20
0
 30
0
 70
128
 71
7
 72
8
 73
2
 74
1
 0
VERTEX
 8
CONNECT
 10
0
 20
0
 30
0
 70
128
 71
2
 72
8
 73
6
 74
4
 0
VERTEX
 8
CONNECT
 10
0
 20
0
 30
0
 70
128
 71
7
 72
1
 73
3
 74
5
 0
VERTEX
 8
CONNECT
 10
0
 20
0
 30
0
 70
128
 71
9
 72
10
 73
12
 74
11
 0
VERTEX
 8
CONNECT
 10
0
 20
0
 30
0
 70
128
 71
11
 72
12
 73
14
 74
13
 0
VERTEX
 8
CONNECT
 10
0
 20
0
 30
0
 70
128
 71
13
 72
14
 73
16
 74
15
 0
VERTEX
 8
CONNECT
 10
0
 20
0
 30
0
 70
128
 71
15
 72
16
 73
10
 74
9
 0
VERTEX
 8
CONNECT
 10
0
 20
0
 30
0
 70
128
 71
10
 72
16
 73
14
 74
12
 0
VERTEX
 8
CONNECT
 10
0
 20
0
 30
0
 70
128
 71
15
 72
9
 73
11
 74
13
 0
VERTEX
 8
CONNECT
 10
0
 20
0
 30
0
 70
128
 71
17
 72
18
 73
20
 74
19
 0
VERTEX
 8
CONNECT
 10
0
 20
0
 30
0
 70
128
 71
19
 72
20
 73
22
 74
21
 0
VERTEX
 8
CONNECT
 10
0
 20
0
 30
0
 70
128
 71
21
 72
22
 73
24
 74
23
 0
VERTEX
 8
CONNECT
 10
0
 20
0
 30
0
 70
128
 71
23
 72
24
 73
18
 74
17
 0
VERTEX
 8
CONNECT
 10
0
 20
0
 30
0
 70
128
 71
18
 72
24
 73
22
 74
20
 0
VERTEX
 8
CONNECT
 10
0
 20
0
 30
0
 70
128
 71
23
 72
17
 73
19
 74
21
 0
VERTEX
 8
CONNECT
 10
0
 20
0
 30
0
 70
128
 71
25
 72
26
 73
28
 74
27
 0
VERTEX
 8
CONNECT
 10
0
 20
0
 30
0
 70
128
 71
27
 72
28
 73
30
 74
29
 0
VERTEX
 8
CONNECT
 10
0
 20
0
 30
0
 70
128
 71
29
 72
30
 73
32
 74
31
 0
VERTEX
 8
CONNECT
 10
0
 20
0
 30
0
 70
128
 71
31
 72
32
 73
26
 74
25
 0
VERTEX
 8
CONNECT
 10
0
 20
0
 30
0
 70
128
 71
26
 72
32
 73
30
 74
28
 0
VERTEX
 8
CONNECT
 10
0
 20
0
 30
0
 70
128
 71
31
 72
25
 73
27
 74
29
 0
VERTEX
 8
CONNECT
 10
0
 20
0
 30
0
 70
128
 71
33
 72
34
 73
36
 74
35
 0
VERTEX
 8
CONNECT
 10
0
 20
0
 30
0
 70
128
 71
35
 72
36
 73
38
 74
37
 0
VERTEX
 8
CONNECT
 10
0
 20
0
 30
0
 70
128
 71
37
 72
38
 73
40
 74
39
 0
VERTEX
 8
CONNECT
 10
0
 20
0
 30
0
 70
128
 71
39
 72
40
 73
34
 74
33
 0
VERTEX
 8
CONNECT
 10
0
 20
0
 30
0
 70
128
 71
34
 72
40
 73
38
 74
36
 0
VERTEX
 8
CONNECT
 10
0
 20
0
 30
0
 70
128
 71
39
 72
33
 73
35
 74
37
 0
VERTEX
 8
CONNECT
 10
0
 20
0
 30
0
 70
128
 71
41
 72
42
 73
44
 74
43
 0
VERTEX
 8
CONNECT
 10
0
 20
0
 30
0
 70
128
 71
43
 72
44
 73
46
 74
45
 0
VERTEX
 8
CONNECT
 10
0
 20
0
 30
0
 70
128
 71
45
 72
46
 73
48
 74
47
 0
VERTEX
 8
CONNECT
 10
0
 20
0
 30
0
 70
128
 71
47
 72
48
 73
42
 74
41
 0
VERTEX
 8
CONNECT
 10
0
 20
0
 30
0
 70
128
 71
42
 72
48
 73
46
 74
44
 0
VERTEX
 8
CONNECT
 10
0
 20
0
 30
0
 70
128
 71
47
 72
41
 73
43
 74
45
 0
VERTEX
 8
CONNECT
 10
0
 20
0
 30
0
 70
128
 71
49
 72
50
 73
52
 74
51
 0
VERTEX
 8
CONNECT
 10
0
 20
0
 30
0
 70
128
 71
51
 72
52
 73
54
 74
53
 0
VERTEX
 8
CONNECT
 10
0
 20
0
 30
0
 70
128
 71
53
 72
54
 73
56
 74
55
 0
VERTEX
 8
CONNECT
 10
0
 20
0
 30
0
 70
128
 71
55
 72
56
 73
50
 74
49
 0
VERTEX
 8
CONNECT
 10
0
 20
0
 30
0
 70
128
 71
50
 72
56
 73
54
 74
52
 0
VERTEX
 8
CONNECT
 10
0
 20
0
 30
0
 70
128
 71
55
 72
49
 73
51
 74
53
 0
VERTEX
 8
CONNECT
 10
0
 20
0
 30
0
 70
128
 71
57
 72
58
 73
60
 74
59
 0
VERTEX
 8
CONNECT
 10
0
 20
0
 30
0
 70
128
 71
59
 72
60
 73
62
 74
61
 0
VERTEX
 8
CONNECT
 10
0
 20
0
 30
0
 70
128
 71
61
 72
62
 73
64
 74
63
 0
VERTEX
 8
CONNECT
 10
0
 20
0
 30
0
 70
128
 71
63
 72
64
 73
58
 74
57
 0
VERTEX
 8
CONNECT
 10
0
 20
0
 30
0
 70
128
 71
58
 72
64
 73
62
 74
60
 0
VERTEX
 8
CONNECT
 10
0
 20
0
 30
0
 70
128
 71
63
 72
57
 73
59
 74
61
 0
VERTEX
 8
CONNECT
 10
0
 20
0
 30
0
 70
128
 71
65
 72
66
 73
68
 74
67
 0
VERTEX
 8
CONNECT
 10
0
 20
0
 30
0
 70
128
 71
67
 72
68
 73
70
 74
69
 0
VERTEX
 8
CONNECT
 10
0
 20
0
 30
0
 70
128
 71
69
 72
70
 73
72
 74
71
 0
VERTEX
 8
CONNECT
 10
0
 20
0
 30
0
 70
128
 71
71
 72
72
 73
66
 74
65
 0
VERTEX
 8
CONNECT
 10
0
 20
0
 30
0
 70
128
 71
66
 72
72
 73
70
 74
68
 0
VERTEX
 8
CONNECT
 10
0
 20
0
 30
0
 70
128
 71
71
 72
65
 73
67
 74
69
 0
VERTEX
 8
CONNECT
 10
0
 20
0
 30
0
 70
128
 71
73
 72
74
 73
76
 74
75
 0
VERTEX
 8
CONNECT
 10
0
 20
0
 30
0
 70
128
 71
75
 72
76
 73
78
 74
77
 0
VERTEX
 8
CONNECT
 10
0
 20
0
 30
0
 70
128
 71
77
 72
78
 73
80
 74
79
 0
VERTEX
 8
CONNECT
 10
0
 20
0
 30
0
 70
128
 71
79
 72
80
 73
74
 74
73
 0
VERTEX
 8
CONNECT
 10
0
 20
0
 30
0
 70
128
 71
74
 72
80
 73
78
 74
76
 0
VERTEX
 8
CONNECT
 10
0
 20
0
 30
0
 70
128
 71
79
 72
73
 73
75
 74
77
 0
VERTEX
 8
CONNECT
 10
0
 20
0
 30
0
 70
128
 71
81
 72
82
 73
84
 74
83
 0
VERTEX
 8
CONNECT
 10
0
 20
0
 30
0
 70
128
 71
83
 72
84
 73
86
 74
85
 0
VERTEX
 8
CONNECT
 10
0
 20
0
 30
0
 70
128
 71
85
 72
86
 73
88
 74
87
 0
VERTEX
 8
CONNECT
 10
0
 20
0
 30
0
 70
128
 71
87
 72
88
 73
82
 74
81
 0
VERTEX
 8
CONNECT
 10
0
 20
0
 30
0
 70
128
 71
82
 72
88
 73
86
 74
84
 0
VERTEX
 8
CONNECT
 10
0
 20
0
 30
0
 70
128
 71
87
 72
81
 73
83
 74
85
 0
VERTEX
 8
CONNECT
 10
0
 20
0
 30
0
 70
128
 71
89
 72
90
 73
92
 74
91
 0
VERTEX
 8
CONNECT
 10
0
 20
0
 30
0
 70
128
 71
91
 72
92
 73
94
 74
93
 0
VERTEX
 8
CONNECT
 10
0
 20
0
 30
0
 70
128
 71
93
 72
94
 73
96
 74
95
 0
VERTEX
 8
CONNECT
 10
0
 20
0
 30
0
 70
128
 71
95
 72
96
 73
90
 74
89
 0
VERTEX
 8
CONNECT
 10
0
 20
0
 30
0
 70
128
 71
90
 72
96
 73
94
 74
92
 0
VERTEX
 8
CONNECT
 10
0
 20
0
 30
0
 70
128
 71
95
 72
89
 73
91
 74
93
 0
VERTEX
 8
CONNECT
 10
0
 20
0
 30
0
 70
128
 71
97
 72
98
 73
100
 74
99
 0
VERTEX
 8
CONNECT
 10
0
 20
0
 30
0
 70
128
 71
99
 72
100
 73
102
 74
101
 0
VERTEX
 8
CONNECT
 10
0
 20
0
 30
0
 70
128
 71
101
 72
102
 73
104
 74
103
 0
VERTEX
 8
CONNECT
 10
0
 20
0
 30
0
 70
128
 71
103
 72
104
 73
98
 74
97
 0
VERTEX
 8
CONNECT
 10
0
 20
0
 30
0
 70
128
 71
98
 72
104
 73
102
 74
100
 0
VERTEX
 8
CONNECT
 10
0
 20
0
 30
0
 70
128
 71
103
 72
97
 73
99
 74
101
 0
VERTEX
 8
CONNECT
 10
0
 20
0
 30
0
 70
128
 71
105
 72
106
 73
108
 74
107
 0
VERTEX
 8
CONNECT
 10
0
 20
0
 30
0
 70
128
 71
107
 72
108
 73
110
 74
109
 0
VERTEX
 8
CONNECT
 10
0
 20
0
 30
0
 70
128
 71
109
 72
110
 73
112
 74
111
 0
VERTEX
 8
CONNECT
 10
0
 20
0
 30
0
 70
128
 71
111
 72
112
 73
106
 74
105
 0
VERTEX
 8
CONNECT
 10
0
 20
0
 30
0
 70
128
 71
106
 72
112
 73
110
 74
108
 0
VERTEX
 8
CONNECT
 10
0
 20
0
 30
0
 70
128
 71
111
 72
105
 73
107
 74
109
 0
VERTEX
 8
CONNECT
 10
0
 20
0
 30
0
 70
128
 71
113
 72
114
 73
116
 74
115
 0
VERTEX
 8
CONNECT
 10
0
 20
0
 30
0
 70
128
 71
115
 72
116
 73
118
 74
117
 0
VERTEX
 8
CONNECT
 10
0
 20
0
 30
0
 70
128
 71
117
 72
118
 73
120
 74
119
 0
VERTEX
 8
CONNECT
 10
0
 20
0
 30
0
 70
128
 71
119
 72
120
 73
114
 74
113
 0
VERTEX
 8
CONNECT
 10
0
 20
0
 30
0
 70
128
 71
114
 72
120
 73
118
 74
116
 0
VERTEX
 8
CONNECT
 10
0
 20
0
 30
0
 70
128
 71
119
 72
113
 73
115
 74
117
 0
VERTEX
 8
CONNECT
 10
0
 20
0
 30
0
 70
128
 71
121
 72
122
 73
124
 74
123
 0
VERTEX
 8
CONNECT
 10
0
 20
0
 30
0
 70
128
 71
123
 72
124
 73
126
 74
125
 0
VERTEX
 8
CONNECT
 10
0
 20
0
 30
0
 70
128
 71
125
 72
126
 73
128
 74
127
 0
VERTEX
 8
CONNECT
 10
0
 20
0
 30
0
 70
128
 71
127
 72
128
 73
122
 74
121
 0
VERTEX
 8
CONNECT
 10
0
 20
0
 30
0
 70
128
 71
122
 72
128
 73
126
 74
124
 0
VERTEX
 8
CONNECT
 10
0
 20
0
 30
0
 70
128
 71
127
 72
121
 73
123
 74
125
 0
VERTEX
 8
CONNECT
 10
0
 20
0
 30
0
 70
128
 71
129
 72
130
 73
132
 74
131
 0
VERTEX
 8
CONNECT
 10
0
 20
0
 30
0
 70
128
 71
131
 72
132
 73
134
 74
133
 0
VERTEX
 8
CONNECT
 10
0
 20
0
 30
0
 70
128
 71
133
 72
134
 73
136
 74
135
 0
VERTEX
 8
CONNECT
 10
0
 20
0
 30
0
 70
128
 71
135
 72
136
 73
130
 74
129
 0
VERTEX
 8
CONNECT
 10
0
 20
0
 30
0
 70
128
 71
130
 72
136
 73
134
 74
132
 0
VERTEX
 8
CONNECT
 10
0
 20
0
 30
0
 70
128
 71
135
 72
129
 73
131
 74
133
 0
VERTEX
 8
CONNECT
 10
0
 20
0
 30
0
 70
128
 71
137
 72
138
 73
140
 74
139
 0
VERTEX
 8
CONNECT
 10
0
 20
0
 30
0
 70
128
 71
139
 72
140
 73
142
 74
141
 0
VERTEX
 8
CONNECT
 10
0
 20
0
 30
0
 70
128
 71
141
 72
142
 73
144
 74
143
 0
VERTEX
 8
CONNECT
 10
0
 20
0
 30
0
 70
128
 71
143
 72
144
 73
138
 74
137
 0
VERTEX
 8
CONNECT
 10
0
 20
0
 30
0
 70
128
 71
138
 72
144
 73
142
 74
140
 0
VERTEX
 8
CONNECT
 10
0
 20
0
 30
0
 70
128
 71
143
 72
137
 73
139
 74
141
 0
VERTEX
 8
CONNECT
 10
0
 20
0
 30
0
 70
128
 71
145
 72
146
 73
148
 74
147
 0
VERTEX
 8
CONNECT
 10
0
 20
0
 30
0
 70
128
 71
147
 72
148
 73
150
 74
149
 0
VERTEX
 8
CONNECT
 10
0
 20
0
 30
0
 70
128
 71
149
 72
150
 73
152
 74
151
 0
VERTEX
 8
CONNECT
 10
0
 20
0
 30
0
 70
128
 71
151
 72
152
 73
146
 74
145
 0
VERTEX
 8
CONNECT
 10
0
 20
0
 30
0
 70
128
 71
146
 72
152
 73
150
 74
148
 0
VERTEX
 8
CONNECT
 10
0
 20
0
 30
0
 70
128
 71
151
 72
145
 73
147
 74
149
 0
VERTEX
 8
CONNECT
 10
0
 20
0
 30
0
 70
128
 71
153
 72
154
 73
156
 74
155
 0
VERTEX
 8
CONNECT
 10
0
 20
0
 30
0
 70
128
 71
155
 72
156
 73
158
 74
157
 0
VERTEX
 8
CONNECT
 10
0
 20
0
 30
0
 70
128
 71
157
 72
158
 73
160
 74
159
 0
VERTEX
 8
CONNECT
 10
0
 20
0
 30
0
 70
128
 71
159
 72
160
 73
154
 74
153
 0
VERTEX
 8
CONNECT
 10
0
 20
0
 30
0
 70
128
 71
154
 72
160
 73
158
 74
156
 0
VERTEX
 8
CONNECT
 10
0
 20
0
 30
0
 70
128
 71
159
 72
153
 73
155
 74
157
 0
VERTEX
 8
CONNECT
 10
0
 20
0
 30
0
 70
128
 71
161
 72
162
 73
164
 74
163
 0
VERTEX
 8
CONNECT
 10
0
 20
0
 30
0
 70
128
 71
163
 72
164
 73
166
 74
165
 0
VERTEX
 8
CONNECT
 10
0
 20
0
 30
0
 70
128
 71
165
 72
166
 73
168
 74
167
 0
VERTEX
 8
CONNECT
 10
0
 20
0
 30
0
 70
128
 71
167
 72
168
 73
162
 74
161
 0
VERTEX
 8
CONNECT
 10
0
 20
0
 30
0
 70
128
 71
162
 72
168
 73
166
 74
164
 0
VERTEX
 8
CONNECT
 10
0
 20
0
 30
0
 70
128
 71
167
 72
161
 73
163
 74
165
 0
VERTEX
 8
CONNECT
 10
0
 20
0
 30
0
 70
128
 71
169
 72
170
 73
172
 74
171
 0
VERTEX
 8
CONNECT
 10
0
 20
0
 30
0
 70
128
 71
171
 72
172
 73
174
 74
173
 0
VERTEX
 8
CONNECT
 10
0
 20
0
 30
0
 70
128
 71
173
 72
174
 73
176
 74
175
 0
VERTEX
 8
CONNECT
 10
0
 20
0
 30
0
 70
128
 71
175
 72
176
 73
170
 74
169
 0
VERTEX
 8
CONNECT
 10
0
 20
0
 30
0
 70
128
 71
170
 72
176
 73
174
 74
172
 0
VERTEX
 8
CONNECT
 10
0
 20
0
 30
0
 70
128
 71
175
 72
169
 73
171
 74
173
 0
VERTEX
 8
CONNECT
 10
0
 20
0
 30
0
 70
128
 71
177
 72
178
 73
180
 74
179
 0
VERTEX
 8
CONNECT
 10
0
 20
0
 30
0
 70
128
 71
179
 72
180
 73
182
 74
181
 0
VERTEX
 8
CONNECT
 10
0
 20
0
 30
0
 70
128
 71
181
 72
182
 73
184
 74
183
 0
VERTEX
 8
CONNECT
 10
0
 20
0
 30
0
 70
128
 71
183
 72
184
 73
178
 74
177
 0
VERTEX
 8
CONNECT
 10
0
 20
0
 30
0
 70
128
 71
178
 72
184
 73
182
 74
180
 0
VERTEX
 8
CONNECT
 10
0
 20
0
 30
0
 70
128
 71
183
 72
177
 73
179
 74
181
 0
VERTEX
 8
CONNECT
 10
0
 20
0
 30
0
 70
128
 71
185
 72
186
 73
188
 74
187
 0
VERTEX
 8
CONNECT
 10
0
 20
0
 30
0
 70
128
 71
187
 72
188
 73
190
 74
189
 0
VERTEX
 8
CONNECT
 10
0
 20
0
 30
0
 70
128
 71
189
 72
190
 73
192
 74
191
 0
VERTEX
 8
CONNECT
 10
0
 20
0
 30
0
 70
128
 71
191
 72
192
 73
186
 74
185
 0
VERTEX
 8
CONNECT
 10
0
 20
0
 30
0
 70
128
 71
186
 72
192
 73
190
 74
188
 0
VERTEX
 8
CONNECT
 10
0
 20
0
 30
0
 70
128
 71
191
 72
185
 73
187
 74
189
 0
VERTEX
 8
CONNECT
 10
0
 20
0
 30
0
 70
128
 71
193
 72
194
 73
196
 74
195
 0
VERTEX
 8
CONNECT
 10
0
 20
0
 30
0
 70
128
 71
195
 72
196
 73
198
 74
197
 0
VERTEX
 8
CONNECT
 10
0
 20
0
 30
0
 70
128
 71
197
 72
198
 73
200
 74
199
 0
VERTEX
 8
CONNECT
 10
0
 20
0
 30
0
 70
128
 71
199
 72
200
 73
194
 74
193
 0
VERTEX
 8
CONNECT
 10
0
 20
0
 30
0
 70
128
 71
194
 72
200
 73
198
 74
196
 0
VERTEX
 8
CONNECT
 10
0
 20
0
 30
0
 70
128
 71
199
 72
193
 73
195
 74
197
 0
SEQEND
 0
POLYLINE
 8
BUILDING_1
 66
1
 10
0.0
 20
0.0
 30
0.0
 70
64
 71
356
 72
342
 0
VERTEX
 8
BUILDING_1
 10
7.2284
 20
-7.5405
 30
3.8172
 70
192
 0
VERTEX
 8
BUILDING_1
 10
7.2284
 20
-7.5405
 30
5.1602
 70
192
 0
VERTEX
 8
BUILDING_1
 10
7.2284
 20
-7.5405
 30
6.5033
 70
192
 0
VERTEX
 8
BUILDING_1
 10
7.2284
 20
-7.5405
 30
7.8463
 70
192
 0
VERTEX
 8
BUILDING_1
 10
8.0727
 20
-7.5405
 30
3.8172
 70
192
 0
VERTEX
 8
BUILDING_1
 10
8.0727
 20
-7.5405
 30
5.1602
 70
192
 0
VERTEX
 8
BUILDING_1
 10
8.0727
 20
-7.5405
 30
6.5033
 70
192
 0
VERTEX
 8
BUILDING_1
 10
8.0727
 20
-7.5405
 30
8.1735
 70
192
 0
VERTEX
 8
BUILDING_1
 10
8.9171
 20
-7.5405
 30
3.8172
 70
192
 0
VERTEX
 8
BUILDING_1
 10
8.9171
 20
-7.5405
 30
5.1602
 70
192
 0
VERTEX
 8
BUILDING_1
 10
8.9171
 20
-7.5405
 30
6.5033
 70
192
 0
VERTEX
 8
BUILDING_1
 10
8.9171
 20
-7.5405
 30
8.1735
 70
192
 0
VERTEX
 8
BUILDING_1
 10
9.7614
 20
-7.5405
 30
3.8172
 70
192
 0
VERTEX
 8
BUILDING_1
 10
9.7614
 20
-7.5405
 30
5.1602
 70
192
 0
VERTEX
 8
BUILDING_1
 10
9.7614
 20
-7.5405
 30
6.5033
 70
192
 0
VERTEX
 8
BUILDING_1
 10
9.7614
 20
-7.5405
 30
7.8463
 70
192
 0
VERTEX
 8
BUILDING_1
 10
9.7614
 20
-6.9816
 30
3.8172
 70
192
 0
VERTEX
 8
BUILDING_1
 10
9.7614
 20
-6.9816
 30
5.1602
 70
192
 0
VERTEX
 8
BUILDING_1
 10
9.7614
 20
-6.9816
 30
6.5033
 70
192
 0
VERTEX
 8
BUILDING_1
 10
9.7614
 20
-6.9816
 30
7.8463
 70
192
 0
VERTEX
 8
BUILDING_1
 10
9.7614
 20
-6.4227
 30
5.1602
 70
192
 0
VERTEX
 8
BUILDING_1
 10
9.7614
 20
-6.4227
 30
6.5033
 70
192
 0
VERTEX
 8
BUILDING_1
 10
9.7614
 20
-6.4227
 30
7.8463
 70
192
 0
VERTEX
 8
BUILDING_1
 10
9.7614
 20
-5.8638
 30
5.1602
 70
192
 0
VERTEX
 8
BUILDING_1
 10
9.7614
 20
-5.8638
 30
6.5033
 70
192
 0
VERTEX
 8
BUILDING_1
 10
9.7614
 20
-5.8638
 30
7.8463
 70
192
 0
VERTEX
 8
BUILDING_1
 10
9.7614
 20
-5.3048
 30
3.8172
 70
192
 0
VERTEX
 8
BUILDING_1
 10
9.7614
 20
-5.3048
 30
5.1602
 70
192
 0
VERTEX
 8
BUILDING_1
 10
9.7614
 20
-5.3048
 30
6.5033
 70
192
 0
VERTEX
 8
BUILDING_1
 10
9.7614
 20
-5.3048
 30
7.8463
 70
192
 0
VERTEX
 8
BUILDING_1
 10
9.7614
 20
-4.7459
 30
3.8172
 70
192
 0
VERTEX
 8
BUILDING_1
 10
9.7614
 20
-4.7459
 30
5.1602
 70
192
 0
VERTEX
 8
BUILDING_1
 10
9.7614
 20
-4.7459
 30
6.5033
 70
192
 0
VERTEX
 8
BUILDING_1
 10
9.7614
 20
-4.7459
 30
7.8463
 70
192
 0
VERTEX
 8
BUILDING_1
 10
8.9171
 20
-4.7459
 30
3.8172
 70
192
 0
VERTEX
 8
BUILDING_1
 10
8.9171
 20
-4.7459
 30
5.1602
 70
192
 0
VERTEX
 8
BUILDING_1
 10
8.9171
 20
-4.7459
 30
6.5033
 70
192
 0
VERTEX
 8
BUILDING_1
 10
8.9171
 20
-4.7459
 30
8.1735
 70
192
 0
VERTEX
 8
BUILDING_1
 10
8.0727
 20
-4.7459
 30
3.8172
 70
192
 0
VERTEX
 8
BUILDING_1
 10
8.0727
 20
-4.7459
 30
5.1602
 70
192
 0
VERTEX
 8
BUILDING_1
 10
8.0727
 20
-4.7459
 30
6.5033
 70
192
 0
VERTEX
 8
BUILDING_1
 10
8.0727
 20
-4.7459
 30
8.1735
 70
192
 0
VERTEX
 8
BUILDING_1
 10
7.2284
 20
-4.7459
 30
3.8172
 70
192
 0
VERTEX
 8
BUILDING_1
 10
7.2284
 20
-4.7459
 30
5.1602
 70
192
 0
VERTEX
 8
BUILDING_1
 10
7.2284
 20
-4.7459
 30
6.5033
 70
192
 0
VERTEX
 8
BUILDING_1
 10
7.2284
 20
-4.7459
 30
7.8463
 70
192
 0
VERTEX
 8
BUILDING_1
 10
7.2284
 20
-5.3048
 30
3.8172
 70
192
 0
VERTEX
 8
BUILDING_1
 10
7.2284
 20
-5.3048
 30
5.1602
 70
192
 0
VERTEX
 8
BUILDING_1
 10
7.2284
 20
-5.3048
 30
6.5033
 70
192
 0
VERTEX
 8
BUILDING_1
 10
7.2284
 20
-5.3048
 30
7.8463
 70
192
 0
VERTEX
 8
BUILDING_1
 10
7.2284
 20
-5.8638
 30
3.8172
 70
192
 0
VERTEX
 8
BUILDING_1
 10
7.2284
 20
-5.8638
 30
5.1602
 70
192
 0
VERTEX
 8
BUILDING_1
 10
7.2284
 20
-5.8638
 30
6.5033
 70
192
 0
VERTEX
 8
BUILDING_1
 10
7.2284
 20
-5.8638
 30
7.8463
 70
192
 0
VERTEX
 8
BUILDING_1
 10
7.2284
 20
-6.4227
 30
3.8172
 70
192
 0
VERTEX
 8
BUILDING_1
 10
7.2284
 20
-6.4227
 30
5.1602
 70
192
 0
VERTEX
 8
BUILDING_1
 10
7.2284
 20
-6.4227
 30
6.5033
 70
192
 0
VERTEX
 8
BUILDING_1
 10
7.2284
 20
-6.4227
 30
7.8463
 70
192
 0
VERTEX
 8
BUILDING_1
 10
7.2284
 20
-6.9816
 30
3.8172
 70
192
 0
VERTEX
 8
BUILDING_1
 10
7.2284
 20
-6.9816
 30
5.1602
 70
192
 0
VERTEX
 8
BUILDING_1
 10
7.2284
 20
-6.9816
 30
6.5033
 70
192
 0
VERTEX
 8
BUILDING_1
 10
7.2284
 20
-6.9816
 30
7.8463
 70
192
 0
VERTEX
 8
BUILDING_1
 10
8.0619
 20
-6.9816
 30
8.1866
 70
192
 0
VERTEX
 8
BUILDING_1
 10
8.0619
 20
-6.4227
 30
8.1866
 70
192
 0
VERTEX
 8
BUILDING_1
 10
8.0619
 20
-5.8638
 30
8.1866
 70
192
 0
VERTEX
 8
BUILDING_1
 10
8.0619
 20
-5.3048
 30
8.1866
 70
192
 0
VERTEX
 8
BUILDING_1
 10
8.928
 20
-6.9816
 30
8.1866
 70
192
 0
VERTEX
 8
BUILDING_1
 10
8.928
 20
-6.4227
 30
8.1866
 70
192
 0
VERTEX
 8
BUILDING_1
 10
8.928
 20
-5.8638
 30
8.1866
 70
192
 0
VERTEX
 8
BUILDING_1
 10
8.928
 20
-5.3048
 30
8.1866
 70
192
 0
VERTEX
 8
BUILDING_1
 10
8.0727
 20
-5.3048
 30
3.6172
 70
192
 0
VERTEX
 8
BUILDING_1
 10
8.0727
 20
-5.8638
 30
3.6172
 70
192
 0
VERTEX
 8
BUILDING_1
 10
8.0727
 20
-6.4227
 30
3.6172
 70
192
 0
VERTEX
 8
BUILDING_1
 10
8.0727
 20
-6.9816
 30
3.6172
 70
192
 0
VERTEX
 8
BUILDING_1
 10
8.9171
 20
-5.3048
 30
3.6172
 70
192
 0
VERTEX
 8
BUILDING_1
 10
8.9171
 20
-5.8638
 30
3.6172
 70
192
 0
VERTEX
 8
BUILDING_1
 10
8.9171
 20
-6.4227
 30
3.6172
 70
192
 0
VERTEX
 8
BUILDING_1
 10
8.9171
 20
-6.9816
 30
3.6172
 70
192
 0
VERTEX
 8
BUILDING_1
 10
7.2093
 20
-7.5405
 30
7.8563
 70
192
 0
VERTEX
 8
BUILDING_1
 10
8.0619
 20
-7.5405
 30
8.1866
 70
192
 0
VERTEX
 8
BUILDING_1
 10
8.928
 20
-7.5405
 30
8.1866
 70
192
 0
VERTEX
 8
BUILDING_1
 10
9.7806
 20
-7.5405
 30
7.8563
 70
192
 0
VERTEX
 8
BUILDING_1
 10
9.7806
 20
-6.9816
 30
7.8563
 70
192
 0
VERTEX
 8
BUILDING_1
 10
9.7806
 20
-6.4227
 30
7.8563
 70
192
 0
VERTEX
 8
BUILDING_1
 10
9.7806
 20
-5.8638
 30
7.8563
 70
192
 0
VERTEX
 8
BUILDING_1
 10
9.7806
 20
-5.3048
 30
7.8563
 70
192
 0
VERTEX
 8
BUILDING_1
 10
9.7806
 20
-4.7459
 30
7.8563
 70
192
 0
VERTEX
 8
BUILDING_1
 10
8.928
 20
-4.7459
 30
8.1866
 70
192
 0
VERTEX
 8
BUILDING_1
 10
8.0619
 20
-4.7459
 30
8.1866
 70
192
 0
VERTEX
 8
BUILDING_1
 10
7.2093
 20
-4.7459
 30
7.8563
 70
192
 0
VERTEX
 8
BUILDING_1
 10
7.2093
 20
-5.3048
 30
7.8563
 70
192
 0
VERTEX
 8
BUILDING_1
 10
7.2093
 20
-5.8638
 30
7.8563
 70
192
 0
VERTEX
 8
BUILDING_1
 10
7.2093
 20
-6.4227
 30
7.8563
 70
192
 0
VERTEX
 8
BUILDING_1
 10
7.2093
 20
-6.9816
 30
7.8563
 70
192
 0
VERTEX
 8
BUILDING_1
 10
7.2284
 20
-7.5612
 30
7.8463
 70
192
 0
VERTEX
 8
BUILDING_1
 10
8.0727
 20
-7.5612
 30
8.1735
 70
192
 0
VERTEX
 8
BUILDING_1
 10
8.9171
 20
-7.5612
 30
8.1735
 70
192
 0
VERTEX
 8
BUILDING_1
 10
9.7614
 20
-7.5612
 30
7.8463
 70
192
 0
VERTEX
 8
BUILDING_1
 10
7.2093
 20
-7.5612
 30
7.8563
 70
192
 0
VERTEX
 8
BUILDING_1
 10
8.0619
 20
-7.5612
 30
8.1866
 70
192
 0
VERTEX
 8
BUILDING_1
 10
8.928
 20
-7.5612
 30
8.1866
 70
192
 0
VERTEX
 8
BUILDING_1
 10
9.7806
 20
-7.5612
 30
7.8563
 70
192
 0
VERTEX
 8
BUILDING_1
 10
9.7614
 20
-4.7252
 30
7.8463
 70
192
 0
VERTEX
 8
BUILDING_1
 10
8.9171
 20
-4.7252
 30
8.1735
 70
192
 0
VERTEX
 8
BUILDING_1
 10
8.0727
 20
-4.7252
 30
8.1735
 70
192
 0
VERTEX
 8
BUILDING_1
 10
7.2284
 20
-4.7252
 30
7.8463
 70
192
 0
VERTEX
 8
BUILDING_1
 10
9.7806
 20
-4.7252
 30
7.8563
 70
192
 0
VERTEX
 8
BUILDING_1
 10
8.928
 20
-4.7252
 30
8.1866
 70
192
 0
VERTEX
 8
BUILDING_1
 10
8.0619
 20
-4.7252
 30
8.1866
 70
192
 0
VERTEX
 8
BUILDING_1
 10
7.2093
 20
-4.7252
 30
7.8563
 70
192
 0
VERTEX
 8
BUILDING_1
 10
7.2062
 20
-7.5405
 30
7.8377
 70
192
 0
VERTEX
 8
BUILDING_1
 10
7.2062
 20
-4.7459
 30
7.8377
 70
192
 0
VERTEX
 8
BUILDING_1
 10
7.2062
 20
-5.3048
 30
7.8377
 70
192
 0
VERTEX
 8
BUILDING_1
 10
7.2062
 20
-5.8638
 30
7.8377
 70
192
 0
VERTEX
 8
BUILDING_1
 10
7.2062
 20
-6.4227
 30
7.8377
 70
192
 0
VERTEX
 8
BUILDING_1
 10
7.2062
 20
-6.9816
 30
7.8377
 70
192
 0
VERTEX
 8
BUILDING_1
 10
7.1871
 20
-7.5405
 30
7.8477
 70
192
 0
VERTEX
 8
BUILDING_1
 10
7.1871
 20
-4.7459
 30
7.8477
 70
192
 0
VERTEX
 8
BUILDING_1
 10
7.1871
 20
-5.3048
 30
7.8477
 70
192
 0
VERTEX
 8
BUILDING_1
 10
7.1871
 20
-5.8638
 30
7.8477
 70
192
 0
VERTEX
 8
BUILDING_1
 10
7.1871
 20
-6.4227
 30
7.8477
 70
192
 0
VERTEX
 8
BUILDING_1
 10
7.1871
 20
-6.9816
 30
7.8477
 70
192
 0
VERTEX
 8
BUILDING_1
 10
7.2062
 20
-7.5612
 30
7.8377
 70
192
 0
VERTEX
 8
BUILDING_1
 10
7.1871
 20
-7.5612
 30
7.8477
 70
192
 0
VERTEX
 8
BUILDING_1
 10
7.2062
 20
-4.7252
 30
7.8377
 70
192
 0
VERTEX
 8
BUILDING_1
 10
7.1871
 20
-4.7252
 30
7.8477
 70
192
 0
VERTEX
 8
BUILDING_1
 10
9.7836
 20
-7.5405
 30
7.8377
 70
192
 0
VERTEX
 8
BUILDING_1
 10
9.7836
 20
-6.9816
 30
7.8377
 70
192
 0
VERTEX
 8
BUILDING_1
 10
9.7836
 20
-6.4227
 30
7.8377
 70
192
 0
VERTEX
 8
BUILDING_1
 10
9.7836
 20
-5.8638
 30
7.8377
 70
192
 0
VERTEX
 8
BUILDING_1
 10
9.7836
 20
-5.3048
 30
7.8377
 70
192
 0
VERTEX
 8
BUILDING_1
 10
9.7836
 20
-4.7459
 30
7.8377
 70
192
 0
VERTEX
 8
BUILDING_1
 10
9.8027
 20
-7.5405
 30
7.8477
 70
192
 0
VERTEX
 8
BUILDING_1
 10
9.8027
 20
-6.9816
 30
7.8477
 70
192
 0
VERTEX
 8
BUILDING_1
 10
9.8027
 20
-6.4227
 30
7.8477
 70
192
 0
VERTEX
 8
BUILDING_1
 10
9.8027
 20
-5.8638
 30
7.8477
 70
192
 0
VERTEX
 8
BUILDING_1
 10
9.8027
 20
-5.3048
 30
7.8477
 70
192
 0
VERTEX
 8
BUILDING_1
 10
9.8027
 20
-4.7459
 30
7.8477
 70
192
 0
VERTEX
 8
BUILDING_1
 10
9.7836
 20
-7.5612
 30
7.8377
 70
192
 0
VERTEX
 8
BUILDING_1
 10
9.8027
 20
-7.5612
 30
7.8477
 70
192
 0
VERTEX
 8
BUILDING_1
 10
9.7836
 20
-4.7252
 30
7.8377
 70
192
 0
VERTEX
 8
BUILDING_1
 10
9.8027
 20
-4.7252
 30
7.8477
 70
192
 0
VERTEX
 8
BUILDING_1
 10
9.7614
 20
-7.5405
 30
6.5296
 70
192
 0
VERTEX
 8
BUILDING_1
 10
9.7614
 20
-6.9816
 30
6.5296
 70
192
 0
VERTEX
 8
BUILDING_1
 10
9.7614
 20
-6.4227
 30
6.5296
 70
192
 0
VERTEX
 8
BUILDING_1
 10
9.7614
 20
-5.8638
 30
6.5296
 70
192
 0
VERTEX
 8
BUILDING_1
 10
9.7614
 20
-5.3048
 30
6.5296
 70
192
 0
VERTEX
 8
BUILDING_1
 10
9.7614
 20
-4.7459
 30
6.5296
 70
192
 0
VERTEX
 8
BUILDING_1
 10
8.9171
 20
-4.7459
 30
6.5296
 70
192
 0
VERTEX
 8
BUILDING_1
 10
8.0727
 20
-4.7459
 30
6.5296
 70
192
 0
VERTEX
 8
BUILDING_1
 10
7.2284
 20
-4.7459
 30
6.5296
 70
192
 0
VERTEX
 8
BUILDING_1
 10
7.2284
 20
-5.3048
 30
6.5296
 70
192
 0
VERTEX
 8
BUILDING_1
 10
7.2284
 20
-5.8638
 30
6.5296
 70
192
 0
VERTEX
 8
BUILDING_1
 10
7.2284
 20
-6.4227
 30
6.5296
 70
192
 0
VERTEX
 8
BUILDING_1
 10
7.2284
 20
-6.9816
 30
6.5296
 70
192
 0
VERTEX
 8
BUILDING_1
 10
7.2284
 20
-7.5405
 30
6.5296
 70
192
 0
VERTEX
 8
BUILDING_1
 10
8.0727
 20
-7.5405
 30
6.5296
 70
192
 0
VERTEX
 8
BUILDING_1
 10
8.9171
 20
-7.5405
 30
6.5296
 70
192
 0
VERTEX
 8
BUILDING_1
 10
9.7614
 20
-7.5405
 30
5.1865
 70
192
 0
VERTEX
 8
BUILDING_1
 10
9.7614
 20
-6.9816
 30
5.1865
 70
192
 0
VERTEX
 8
BUILDING_1
 10
9.7614
 20
-6.4227
 30
5.1865
 70
192
 0
VERTEX
 8
BUILDING_1
 10
9.7614
 20
-5.8638
 30
5.1865
 70
192
 0
VERTEX
 8
BUILDING_1
 10
9.7614
 20
-5.3048
 30
5.1865
 70
192
 0
VERTEX
 8
BUILDING_1
 10
9.7614
 20
-4.7459
 30
5.1865
 70
192
 0
VERTEX
 8
BUILDING_1
 10
8.9171
 20
-4.7459
 30
5.1865
 70
192
 0
VERTEX
 8
BUILDING_1
 10
8.0727
 20
-4.7459
 30
5.1865
 70
192
 0
VERTEX
 8
BUILDING_1
 10
7.2284
 20
-4.7459
 30
5.1865
 70
192
 0
VERTEX
 8
BUILDING_1
 10
7.2284
 20
-5.3048
 30
5.1865
 70
192
 0
VERTEX
 8
BUILDING_1
 10
7.2284
 20
-5.8638
 30
5.1865
 70
192
 0
VERTEX
 8
BUILDING_1
 10
7.2284
 20
-6.4227
 30
5.1865
 70
192
 0
VERTEX
 8
BUILDING_1
 10
7.2284
 20
-6.9816
 30
5.1865
 70
192
 0
VERTEX
 8
BUILDING_1
 10
7.2284
 20
-7.5405
 30
5.1865
 70
192
 0
VERTEX
 8
BUILDING_1
 10
8.0727
 20
-7.5405
 30
5.1865
 70
192
 0
VERTEX
 8
BUILDING_1
 10
8.9171
 20
-7.5405
 30
5.1865
 70
192
 0
VERTEX
 8
BUILDING_1
 10
7.1784
 20
-7.5905
 30
5.1602
 70
192
 0
VERTEX
 8
BUILDING_1
 10
8.0727
 20
-7.5905
 30
5.1602
 70
192
 0
VERTEX
 8
BUILDING_1
 10
8.9171
 20
-7.5905
 30
5.1602
 70
192
 0
VERTEX
 8
BUILDING_1
 10
9.8114
 20
-7.5905
 30
5.1602
 70
192
 0
VERTEX
 8
BUILDING_1
 10
9.8114
 20
-6.9816
 30
5.1602
 70
192
 0
VERTEX
 8
BUILDING_1
 10
9.8114
 20
-6.4227
 30
5.1602
 70
192
 0
VERTEX
 8
BUILDING_1
 10
9.8114
 20
-5.8638
 30
5.1602
 70
192
 0
VERTEX
 8
BUILDING_1
 10
9.8114
 20
-5.3048
 30
5.1602
 70
192
 0
VERTEX
 8
BUILDING_1
 10
9.8114
 20
-4.6959
 30
5.1602
 70
192
 0
VERTEX
 8
BUILDING_1
 10
8.9171
 20
-4.6959
 30
5.1602
 70
192
 0
VERTEX
 8
BUILDING_1
 10
8.0727
 20
-4.6959
 30
5.1602
 70
192
 0
VERTEX
 8
BUILDING_1
 10
7.1784
 20
-4.6959
 30
5.1602
 70
192
 0
VERTEX
 8
BUILDING_1
 10
7.1784
 20
-5.3048
 30
5.1602
 70
192
 0
VERTEX
 8
BUILDING_1
 10
7.1784
 20
-5.8638
 30
5.1602
 70
192
 0
VERTEX
 8
BUILDING_1
 10
7.1784
 20
-6.4227
 30
5.1602
 70
192
 0
VERTEX
 8
BUILDING_1
 10
7.1784
 20
-6.9816
 30
5.1602
 70
192
 0
VERTEX
 8
BUILDING_1
 10
9.8114
 20
-7.5905
 30
5.1865
 70
192
 0
VERTEX
 8
BUILDING_1
 10
9.8114
 20
-6.9816
 30
5.1865
 70
192
 0
VERTEX
 8
BUILDING_1
 10
9.8114
 20
-6.4227
 30
5.1865
 70
192
 0
VERTEX
 8
BUILDING_1
 10
9.8114
 20
-5.8638
 30
5.1865
 70
192
 0
VERTEX
 8
BUILDING_1
 10
9.8114
 20
-5.3048
 30
5.1865
 70
192
 0
VERTEX
 8
BUILDING_1
 10
9.8114
 20
-4.6959
 30
5.1865
 70
192
 0
VERTEX
 8
BUILDING_1
 10
8.9171
 20
-4.6959
 30
5.1865
 70
192
 0
VERTEX
 8
BUILDING_1
 10
8.0727
 20
-4.6959
 30
5.1865
 70
192
 0
VERTEX
 8
BUILDING_1
 10
7.1784
 20
-4.6959
 30
5.1865
 70
192
 0
VERTEX
 8
BUILDING_1
 10
7.1784
 20
-5.3048
 30
5.1865
 70
192
 0
VERTEX
 8
BUILDING_1
 10
7.1784
 20
-5.8638
 30
5.1865
 70
192
 0
VERTEX
 8
BUILDING_1
 10
7.1784
 20
-6.4227
 30
5.1865
 70
192
 0
VERTEX
 8
BUILDING_1
 10
7.1784
 20
-6.9816
 30
5.1865
 70
192
 0
VERTEX
 8
BUILDING_1
 10
7.1784
 20
-7.5905
 30
5.1865
 70
192
 0
VERTEX
 8
BUILDING_1
 10
8.0727
 20
-7.5905
 30
5.1865
 70
192
 0
VERTEX
 8
BUILDING_1
 10
8.9171
 20
-7.5905
 30
5.1865
 70
192
 0
VERTEX
 8
BUILDING_1
 10
7.1784
 20
-7.5905
 30
6.5033
 70
192
 0
VERTEX
 8
BUILDING_1
 10
8.0727
 20
-7.5905
 30
6.5033
 70
192
 0
VERTEX
 8
BUILDING_1
 10
8.9171
 20
-7.5905
 30
6.5033
 70
192
 0
VERTEX
 8
BUILDING_1
 10
9.8114
 20
-7.5905
 30
6.5033
 70
192
 0
VERTEX
 8
BUILDING_1
 10
9.8114
 20
-6.9816
 30
6.5033
 70
192
 0
VERTEX
 8
BUILDING_1
 10
9.8114
 20
-6.4227
 30
6.5033
 70
192
 0
VERTEX
 8
BUILDING_1
 10
9.8114
 20
-5.8638
 30
6.5033
 70
192
 0
VERTEX
 8
BUILDING_1
 10
9.8114
 20
-5.3048
 30
6.5033
 70
192
 0
VERTEX
 8
BUILDING_1
 10
9.8114
 20
-4.6959
 30
6.5033
 70
192
 0
VERTEX
 8
BUILDING_1
 10
8.9171
 20
-4.6959
 30
6.5033
 70
192
 0
VERTEX
 8
BUILDING_1
 10
8.0727
 20
-4.6959
 30
6.5033
 70
192
 0
VERTEX
 8
BUILDING_1
 10
7.1784
 20
-4.6959
 30
6.5033
 70
192
 0
VERTEX
 8
BUILDING_1
 10
7.1784
 20
-5.3048
 30
6.5033
 70
192
 0
VERTEX
 8
BUILDING_1
 10
7.1784
 20
-5.8638
 30
6.5033
 70
192
 0
VERTEX
 8
BUILDING_1
 10
7.1784
 20
-6.4227
 30
6.5033
 70
192
 0
VERTEX
 8
BUILDING_1
 10
7.1784
 20
-6.9816
 30
6.5033
 70
192
 0
VERTEX
 8
BUILDING_1
 10
9.8114
 20
-7.5905
 30
6.5296
 70
192
 0
VERTEX
 8
BUILDING_1
 10
9.8114
 20
-6.9816
 30
6.5296
 70
192
 0
VERTEX
 8
BUILDING_1
 10
9.8114
 20
-6.4227
 30
6.5296
 70
192
 0
VERTEX
 8
BUILDING_1
 10
9.8114
 20
-5.8638
 30
6.5296
 70
192
 0
VERTEX
 8
BUILDING_1
 10
9.8114
 20
-5.3048
 30
6.5296
 70
192
 0
VERTEX
 8
BUILDING_1
 10
9.8114
 20
-4.6959
 30
6.5296
 70
192
 0
VERTEX
 8
BUILDING_1
 10
8.9171
 20
-4.6959
 30
6.5296
 70
192
 0
VERTEX
 8
BUILDING_1
 10
8.0727
 20
-4.6959
 30
6.5296
 70
192
 0
VERTEX
 8
BUILDING_1
 10
7.1784
 20
-4.6959
 30
6.5296
 70
192
 0
VERTEX
 8
BUILDING_1
 10
7.1784
 20
-5.3048
 30
6.5296
 70
192
 0
VERTEX
 8
BUILDING_1
 10
7.1784
 20
-5.8638
 30
6.5296
 70
192
 0
VERTEX
 8
BUILDING_1
 10
7.1784
 20
-6.4227
 30
6.5296
 70
192
 0
VERTEX
 8
BUILDING_1
 10
7.1784
 20
-6.9816
 30
6.5296
 70
192
 0
VERTEX
 8
BUILDING_1
 10
7.1784
 20
-7.5905
 30
6.5296
 70
192
 0
VERTEX
 8
BUILDING_1
 10
8.0727
 20
-7.5905
 30
6.5296
 70
192
 0
VERTEX
 8
BUILDING_1
 10
8.9171
 20
-7.5905
 30
6.5296
 70
192
 0
VERTEX
 8
BUILDING_1
 10
7.2284
 20
-7.5405
 30
3.6172
 70
192
 0
VERTEX
 8
BUILDING_1
 10
8.0727
 20
-7.5405
 30
3.6172
 70
192
 0
VERTEX
 8
BUILDING_1
 10
8.9171
 20
-7.5405
 30
3.6172
 70
192
 0
VERTEX
 8
BUILDING_1
 10
9.7614
 20
-7.5405
 30
3.6172
 70
192
 0
VERTEX
 8
BUILDING_1
 10
9.7614
 20
-6.9816
 30
3.6172
 70
192
 0
VERTEX
 8
BUILDING_1
 10
9.7614
 20
-6.4227
 30
3.6172
 70
192
 0
VERTEX
 8
BUILDING_1
 10
9.7614
 20
-5.8638
 30
3.6172
 70
192
 0
VERTEX
 8
BUILDING_1
 10
9.7614
 20
-5.3048
 30
3.6172
 70
192
 0
VERTEX
 8
BUILDING_1
 10
9.7614
 20
-4.7459
 30
3.6172
 70
192
 0
VERTEX
 8
BUILDING_1
 10
8.9171
 20
-4.7459
 30
3.6172
 70
192
 0
VERTEX
 8
BUILDING_1
 10
8.0727
 20
-4.7459
 30
3.6172
 70
192
 0
VERTEX
 8
BUILDING_1
 10
7.2284
 20
-4.7459
 30
3.6172
 70
192
 0
VERTEX
 8
BUILDING_1
 10
7.2284
 20
-5.3048
 30
3.6172
 70
192
 0
VERTEX
 8
BUILDING_1
 10
7.2284
 20
-5.8638
 30
3.6172
 70
192
 0
VERTEX
 8
BUILDING_1
 10
7.2284
 20
-6.4227
 30
3.6172
 70
192
 0
VERTEX
 8
BUILDING_1
 10
7.2284
 20
-6.9816
 30
3.6172
 70
192
 0
VERTEX
 8
BUILDING_1
 10
7.1784
 20
-7.5905
 30
3.8172
 70
192
 0
VERTEX
 8
BUILDING_1
 10
8.0727
 20
-7.5905
 30
3.8172
 70
192
 0
VERTEX
 8
BUILDING_1
 10
8.9171
 20
-7.5905
 30
3.8172
 70
192
 0
VERTEX
 8
BUILDING_1
 10
9.8114
 20
-7.5905
 30
3.8172
 70
192
 0
VERTEX
 8
BUILDING_1
 10
9.8114
 20
-6.9816
 30
3.8172
 70
192
 0
VERTEX
 8
BUILDING_1
 10
9.8114
 20
-5.3048
 30
3.8172
 70
192
 0
VERTEX
 8
BUILDING_1
 10
9.8114
 20
-4.6959
 30
3.8172
 70
192
 0
VERTEX
 8
BUILDING_1
 10
8.9171
 20
-4.6959
 30
3.8172
 70
192
 0
VERTEX
 8
BUILDING_1
 10
8.0727
 20
-4.6959
 30
3.8172
 70
192
 0
VERTEX
 8
BUILDING_1
 10
7.1784
 20
-4.6959
 30
3.8172
 70
192
 0
VERTEX
 8
BUILDING_1
 10
7.1784
 20
-5.3048
 30
3.8172
 70
192
 0
VERTEX
 8
BUILDING_1
 10
7.1784
 20
-5.8638
 30
3.8172
 70
192
 0
VERTEX
 8
BUILDING_1
 10
7.1784
 20
-6.4227
 30
3.8172
 70
192
 0
VERTEX
 8
BUILDING_1
 10
7.1784
 20
-6.9816
 30
3.8172
 70
192
 0
VERTEX
 8
BUILDING_1
 10
7.1784
 20
-7.5905
 30
3.6172
 70
192
 0
VERTEX
 8
BUILDING_1
 10
8.0727
 20
-7.5905
 30
3.6172
 70
192
 0
VERTEX
 8
BUILDING_1
 10
8.9171
 20
-7.5905
 30
3.6172
 70
192
 0
VERTEX
 8
BUILDING_1
 10
9.8114
 20
-7.5905
 30
3.6172
 70
192
 0
VERTEX
 8
BUILDING_1
 10
9.8114
 20
-6.9816
 30
3.6172
 70
192
 0
VERTEX
 8
BUILDING_1
 10
9.8114
 20
-6.4227
 30
3.6172
 70
192
 0
VERTEX
 8
BUILDING_1
 10
9.8114
 20
-5.8638
 30
3.6172
 70
192
 0
VERTEX
 8
BUILDING_1
 10
9.8114
 20
-5.3048
 30
3.6172
 70
192
 0
VERTEX
 8
BUILDING_1
 10
9.8114
 20
-4.6959
 30
3.6172
 70
192
 0
VERTEX
 8
BUILDING_1
 10
8.9171
 20
-4.6959
 30
3.6172
 70
192
 0
VERTEX
 8
BUILDING_1
 10
8.0727
 20
-4.6959
 30
3.6172
 70
192
 0
VERTEX
 8
BUILDING_1
 10
7.1784
 20
-4.6959
 30
3.6172
 70
192
 0
VERTEX
 8
BUILDING_1
 10
7.1784
 20
-5.3048
 30
3.6172
 70
192
 0
VERTEX
 8
BUILDING_1
 10
7.1784
 20
-5.8638
 30
3.6172
 70
192
 0
VERTEX
 8
BUILDING_1
 10
7.1784
 20
-6.4227
 30
3.6172
 70
192
 0
VERTEX
 8
BUILDING_1
 10
7.1784
 20
-6.9816
 30
3.6172
 70
192
 0
VERTEX
 8
BUILDING_1
 10
9.7614
 20
-6.4816
 30
3.8172
 70
192
 0
VERTEX
 8
BUILDING_1
 10
9.8114
 20
-5.8638
 30
3.8027
 70
192
 0
VERTEX
 8
BUILDING_1
 10
9.7614
 20
-6.4227
 30
4.8221
 70
192
 0
VERTEX
 8
BUILDING_1
 10
9.7614
 20
-6.9816
 30
4.5724
 70
192
 0
VERTEX
 8
BUILDING_1
 10
9.7614
 20
-5.8638
 30
4.8221
 70
192
 0
VERTEX
 8
BUILDING_1
 10
9.7614
 20
-6.9816
 30
4.1436
 70
192
 0
VERTEX
 8
BUILDING_1
 10
9.7614
 20
-5.3048
 30
4.1436
 70
192
 0
VERTEX
 8
BUILDING_1
 10
9.8114
 20
-5.8382
 30
3.8172
 70
192
 0
VERTEX
 8
BUILDING_1
 10
9.8114
 20
-6.4816
 30
3.8172
 70
192
 0
VERTEX
 8
BUILDING_1
 10
9.8114
 20
-6.4227
 30
3.8027
 70
192
 0
VERTEX
 8
BUILDING_1
 10
9.7614
 20
-5.3048
 30
4.5724
 70
192
 0
VERTEX
 8
BUILDING_1
 10
9.7614
 20
-5.8382
 30
3.8172
 70
192
 0
VERTEX
 8
BUILDING_1
 10
9.7614
 20
-7.4363
 30
4.1436
 70
192
 0
VERTEX
 8
BUILDING_1
 10
9.7614
 20
-7.4363
 30
4.5724
 70
192
 0
VERTEX
 8
BUILDING_1
 10
9.7614
 20
-6.5514
 30
4.1436
 70
192
 0
VERTEX
 8
BUILDING_1
 10
9.7614
 20
-6.5514
 30
4.5724
 70
192
 0
VERTEX
 8
BUILDING_1
 10
9.7614
 20
-4.8514
 30
4.5724
 70
192
 0
VERTEX
 8
BUILDING_1
 10
9.7614
 20
-5.8382
 30
4.8221
 70
192
 0
VERTEX
 8
BUILDING_1
 10
9.7614
 20
-5.7363
 30
4.1436
 70
192
 0
VERTEX
 8
BUILDING_1
 10
9.7614
 20
-4.8514
 30
4.1436
 70
192
 0
VERTEX
 8
BUILDING_1
 10
9.7614
 20
-6.9014
 30
7.5802
 70
192
 0
VERTEX
 8
BUILDING_1
 10
9.7614
 20
-6.4962
 30
7.5802
 70
192
 0
VERTEX
 8
BUILDING_1
 10
9.7614
 20
-6.9014
 30
6.8511
 70
192
 0
VERTEX
 8
BUILDING_1
 10
9.7614
 20
-6.4962
 30
6.8511
 70
192
 0
VERTEX
 8
BUILDING_1
 10
9.7614
 20
-5.7805
 30
6.8511
 70
192
 0
VERTEX
 8
BUILDING_1
 10
9.7614
 20
-5.3754
 30
6.8511
 70
192
 0
VERTEX
 8
BUILDING_1
 10
9.7614
 20
-5.7805
 30
7.5802
 70
192
 0
VERTEX
 8
BUILDING_1
 10
9.7614
 20
-5.3754
 30
7.5802
 70
192
 0
VERTEX
 8
BUILDING_1
 10
9.7614
 20
-6.4816
 30
4.8221
 70
192
 0
VERTEX
 8
BUILDING_1
 10
8.2855
 20
-4.7459
 30
6.8511
 70
192
 0
VERTEX
 8
BUILDING_1
 10
9.7614
 20
-5.7363
 30
4.5724
 70
192
 0
VERTEX
 8
BUILDING_1
 10
7.2284
 20
-5.7805
 30
6.8511
 70
192
 0
VERTEX
 8
BUILDING_1
 10
8.7154
 20
-4.7459
 30
7.5802
 70
192
 0
VERTEX
 8
BUILDING_1
 10
7.2284
 20
-5.3754
 30
6.8511
 70
192
 0
VERTEX
 8
BUILDING_1
 10
7.2284
 20
-6.9014
 30
7.5802
 70
192
 0
VERTEX
 8
BUILDING_1
 10
7.2284
 20
-6.9014
 30
6.8511
 70
192
 0
VERTEX
 8
BUILDING_1
 10
7.2284
 20
-6.4962
 30
7.5802
 70
192
 0
VERTEX
 8
BUILDING_1
 10
7.2284
 20
-6.4962
 30
6.8511
 70
192
 0
VERTEX
 8
BUILDING_1
 10
8.7154
 20
-7.5405
 30
7.5802
 70
192
 0
VERTEX
 8
BUILDING_1
 10
8.7154
 20
-7.5405
 30
6.8511
 70
192
 0
VERTEX
 8
BUILDING_1
 10
8.2855
 20
-7.5405
 30
7.5802
 70
192
 0
VERTEX
 8
BUILDING_1
 10
8.2855
 20
-7.5405
 30
6.8511
 70
192
 0
VERTEX
 8
BUILDING_1
 10
9.7614
 20
-6.9018
 30
6.2175
 70
192
 0
VERTEX
 8
BUILDING_1
 10
9.7614
 20
-6.9018
 30
5.4884
 70
192
 0
VERTEX
 8
BUILDING_1
 10
9.7614
 20
-6.4967
 30
6.2175
 70
192
 0
VERTEX
 8
BUILDING_1
 10
9.7614
 20
-6.4967
 30
5.4884
 70
192
 0
VERTEX
 8
BUILDING_1
 10
9.7614
 20
-5.7852
 30
6.2175
 70
192
 0
VERTEX
 8
BUILDING_1
 10
8.7154
 20
-4.7459
 30
6.8511
 70
192
 0
VERTEX
 8
BUILDING_1
 10
8.2855
 20
-4.7459
 30
7.5802
 70
192
 0
VERTEX
 8
BUILDING_1
 10
9.7614
 20
-5.3801
 30
5.4884
 70
192
 0
VERTEX
 8
BUILDING_1
 10
9.7614
 20
-5.7852
 30
5.4884
 70
192
 0
VERTEX
 8
BUILDING_1
 10
7.2284
 20
-5.7805
 30
7.5802
 70
192
 0
VERTEX
 8
BUILDING_1
 10
8.7154
 20
-4.7459
 30
5.4511
 70
192
 0
VERTEX
 8
BUILDING_1
 10
7.2284
 20
-5.3754
 30
7.5802
 70
192
 0
VERTEX
 8
BUILDING_1
 10
8.2855
 20
-4.7459
 30
5.4511
 70
192
 0
VERTEX
 8
BUILDING_1
 10
7.2284
 20
-5.7852
 30
6.2175
 70
192
 0
VERTEX
 8
BUILDING_1
 10
7.2284
 20
-5.7852
 30
5.4884
 70
192
 0
VERTEX
 8
BUILDING_1
 10
7.2284
 20
-5.3801
 30
6.2175
 70
192
 0
VERTEX
 8
BUILDING_1
 10
7.2284
 20
-5.3801
 30
5.4884
 70
192
 0
VERTEX
 8
BUILDING_1
 10
7.2284
 20
-6.9018
 30
6.2175
 70
192
 0
VERTEX
 8
BUILDING_1
 10
7.2284
 20
-6.9018
 30
5.4884
 70
192
 0
VERTEX
 8
BUILDING_1
 10
7.2284
 20
-6.4967
 30
6.2175
 70
192
 0
VERTEX
 8
BUILDING_1
 10
7.2284
 20
-6.4967
 30
5.4884
 70
192
 0
VERTEX
 8
BUILDING_1
 10
8.7154
 20
-7.5405
 30
6.1802
 70
192
 0
VERTEX
 8
BUILDING_1
 10
8.7154
 20
-7.5405
 30
5.4511
 70
192
 0
VERTEX
 8
BUILDING_1
 10
8.2855
 20
-7.5405
 30
6.1802
 70
192
 0
VERTEX
 8
BUILDING_1
 10
8.2855
 20
-7.5405
 30
5.4511
 70
192
 0
VERTEX
 8
BUILDING_1
 10
9.8114
 20
-5.8382
 30
3.8027
 70
192
 0
VERTEX
 8
BUILDING_1
 10
9.7614
 20
-5.3801
 30
6.2175
 70
192
 0
VERTEX
 8
BUILDING_1
 10
9.8114
 20
-6.4816
 30
3.8027
 70
192
 0
VERTEX
 8
BUILDING_1
 10
8.7154
 20
-4.7459
 30
6.1802
 70
192
 0
VERTEX
 8
BUILDING_1
 10
8.2855
 20
-4.7459
 30
6.1802
 70
192
 0
VERTEX
 8
BUILDING_1
 10
0
 20
0
 30
0
 70
128
 71
1
 72
2
 73
6
 74
5
 0
VERTEX
 8
BUILDING_1
 10
0
 20
0
 30
0
 70
128
 71
5
 72
6
 73
10
 74
9
 0
VERTEX
 8
BUILDING_1
 10
0
 20
0
 30
0
 70
128
 71
9
 72
10
 73
14
 74
13
 0
VERTEX
 8
BUILDING_1
 10
0
 20
0
 30
0
 70
128
 71
175
 72
204
 73
205
 74
176
 0
VERTEX
 8
BUILDING_1
 10
0
 20
0
 30
0
 70
128
 71
176
 72
205
 73
206
 74
177
 0
VERTEX
 8
BUILDING_1
 10
0
 20
0
 30
0
 70
128
 71
177
 72
206
 73
191
 74
178
 0
VERTEX
 8
BUILDING_1
 10
0
 20
0
 30
0
 70
128
 71
207
 72
236
 73
237
 74
208
 0
VERTEX
 8
BUILDING_1
 10
0
 20
0
 30
0
 70
128
 71
208
 72
237
 73
238
 74
209
 0
VERTEX
 8
BUILDING_1
 10
0
 20
0
 30
0
 70
128
 71
209
 72
238
 73
223
 74
210
 0
VERTEX
 8
BUILDING_1
 10
0
 20
0
 30
0
 70
128
 71
290
 72
17
 73
13
 74
297
 0
VERTEX
 8
BUILDING_1
 10
0
 20
0
 30
0
 70
128
 71
14
 72
18
 73
288
 74
298
 0
VERTEX
 8
BUILDING_1
 10
0
 20
0
 30
0
 70
128
 71
297
 72
13
 73
14
 74
298
 0
VERTEX
 8
BUILDING_1
 10
0
 20
0
 30
0
 70
128
 71
285
 72
17
 73
290
 74
299
 0
VERTEX
 8
BUILDING_1
 10
0
 20
0
 30
0
 70
128
 71
300
 72
288
 73
18
 74
313
 0
VERTEX
 8
BUILDING_1
 10
0
 20
0
 30
0
 70
128
 71
21
 72
287
 73
313
 74
18
 0
VERTEX
 8
BUILDING_1
 10
0
 20
0
 30
0
 70
128
 71
313
 72
285
 73
299
 74
300
 0
VERTEX
 8
BUILDING_1
 10
0
 20
0
 30
0
 70
128
 71
287
 72
21
 73
24
 74
289
 0
VERTEX
 8
BUILDING_1
 10
0
 20
0
 30
0
 70
128
 71
302
 72
289
 73
24
 74
24
 0
VERTEX
 8
BUILDING_1
 10
0
 20
0
 30
0
 70
128
 71
24
 72
28
 73
295
 74
295
 0
VERTEX
 8
BUILDING_1
 10
0
 20
0
 30
0
 70
128
 71
24
 72
295
 73
315
 74
302
 0
VERTEX
 8
BUILDING_1
 10
0
 20
0
 30
0
 70
128
 71
303
 72
291
 73
27
 74
296
 0
VERTEX
 8
BUILDING_1
 10
0
 20
0
 30
0
 70
128
 71
303
 72
296
 73
302
 74
315
 0
VERTEX
 8
BUILDING_1
 10
0
 20
0
 30
0
 70
128
 71
295
 72
28
 73
32
 74
301
 0
VERTEX
 8
BUILDING_1
 10
0
 20
0
 30
0
 70
128
 71
31
 72
27
 73
291
 74
304
 0
VERTEX
 8
BUILDING_1
 10
0
 20
0
 30
0
 70
128
 71
32
 72
31
 73
304
 74
301
 0
VERTEX
 8
BUILDING_1
 10
0
 20
0
 30
0
 70
128
 71
178
 72
191
 73
192
 74
179
 0
VERTEX
 8
BUILDING_1
 10
0
 20
0
 30
0
 70
128
 71
179
 72
192
 73
193
 74
180
 0
VERTEX
 8
BUILDING_1
 10
0
 20
0
 30
0
 70
128
 71
180
 72
193
 73
194
 74
181
 0
VERTEX
 8
BUILDING_1
 10
0
 20
0
 30
0
 70
128
 71
181
 72
194
 73
195
 74
182
 0
VERTEX
 8
BUILDING_1
 10
0
 20
0
 30
0
 70
128
 71
182
 72
195
 73
196
 74
183
 0
VERTEX
 8
BUILDING_1
 10
0
 20
0
 30
0
 70
128
 71
210
 72
223
 73
224
 74
211
 0
VERTEX
 8
BUILDING_1
 10
0
 20
0
 30
0
 70
128
 71
211
 72
224
 73
225
 74
212
 0
VERTEX
 8
BUILDING_1
 10
0
 20
0
 30
0
 70
128
 71
212
 72
225
 73
226
 74
213
 0
VERTEX
 8
BUILDING_1
 10
0
 20
0
 30
0
 70
128
 71
213
 72
226
 73
227
 74
214
 0
VERTEX
 8
BUILDING_1
 10
0
 20
0
 30
0
 70
128
 71
214
 72
227
 73
228
 74
215
 0
VERTEX
 8
BUILDING_1
 10
0
 20
0
 30
0
 70
128
 71
31
 72
32
 73
36
 74
35
 0
VERTEX
 8
BUILDING_1
 10
0
 20
0
 30
0
 70
128
 71
35
 72
36
 73
40
 74
39
 0
VERTEX
 8
BUILDING_1
 10
0
 20
0
 30
0
 70
128
 71
39
 72
40
 73
44
 74
43
 0
VERTEX
 8
BUILDING_1
 10
0
 20
0
 30
0
 70
128
 71
183
 72
196
 73
197
 74
184
 0
VERTEX
 8
BUILDING_1
 10
0
 20
0
 30
0
 70
128
 71
184
 72
197
 73
198
 74
185
 0
VERTEX
 8
BUILDING_1
 10
0
 20
0
 30
0
 70
128
 71
185
 72
198
 73
199
 74
186
 0
VERTEX
 8
BUILDING_1
 10
0
 20
0
 30
0
 70
128
 71
215
 72
228
 73
229
 74
216
 0
VERTEX
 8
BUILDING_1
 10
0
 20
0
 30
0
 70
128
 71
216
 72
229
 73
230
 74
217
 0
VERTEX
 8
BUILDING_1
 10
0
 20
0
 30
0
 70
128
 71
217
 72
230
 73
231
 74
218
 0
VERTEX
 8
BUILDING_1
 10
0
 20
0
 30
0
 70
128
 71
43
 72
44
 73
48
 74
47
 0
VERTEX
 8
BUILDING_1
 10
0
 20
0
 30
0
 70
128
 71
47
 72
48
 73
52
 74
51
 0
VERTEX
 8
BUILDING_1
 10
0
 20
0
 30
0
 70
128
 71
51
 72
52
 73
56
 74
55
 0
VERTEX
 8
BUILDING_1
 10
0
 20
0
 30
0
 70
128
 71
55
 72
56
 73
60
 74
59
 0
VERTEX
 8
BUILDING_1
 10
0
 20
0
 30
0
 70
128
 71
59
 72
60
 73
2
 74
1
 0
VERTEX
 8
BUILDING_1
 10
0
 20
0
 30
0
 70
128
 71
186
 72
199
 73
200
 74
187
 0
VERTEX
 8
BUILDING_1
 10
0
 20
0
 30
0
 70
128
 71
187
 72
200
 73
201
 74
188
 0
VERTEX
 8
BUILDING_1
 10
0
 20
0
 30
0
 70
128
 71
188
 72
201
 73
202
 74
189
 0
VERTEX
 8
BUILDING_1
 10
0
 20
0
 30
0
 70
128
 71
189
 72
202
 73
203
 74
190
 0
VERTEX
 8
BUILDING_1
 10
0
 20
0
 30
0
 70
128
 71
190
 72
203
 73
204
 74
175
 0
VERTEX
 8
BUILDING_1
 10
0
 20
0
 30
0
 70
128
 71
218
 72
231
 73
232
 74
219
 0
VERTEX
 8
BUILDING_1
 10
0
 20
0
 30
0
 70
128
 71
219
 72
232
 73
233
 74
220
 0
VERTEX
 8
BUILDING_1
 10
0
 20
0
 30
0
 70
128
 71
220
 72
233
 73
234
 74
221
 0
VERTEX
 8
BUILDING_1
 10
0
 20
0
 30
0
 70
128
 71
221
 72
234
 73
235
 74
222
 0
VERTEX
 8
BUILDING_1
 10
0
 20
0
 30
0
 70
128
 71
222
 72
235
 73
236
 74
207
 0
VERTEX
 8
BUILDING_1
 10
0
 20
0
 30
0
 70
128
 71
79
 72
94
 73
63
 74
80
 0
VERTEX
 8
BUILDING_1
 10
0
 20
0
 30
0
 70
128
 71
80
 72
63
 73
67
 74
81
 0
VERTEX
 8
BUILDING_1
 10
0
 20
0
 30
0
 70
128
 71
81
 72
67
 73
83
 74
82
 0
VERTEX
 8
BUILDING_1
 10
0
 20
0
 30
0
 70
128
 71
94
 72
93
 73
64
 74
63
 0
VERTEX
 8
BUILDING_1
 10
0
 20
0
 30
0
 70
128
 71
63
 72
64
 73
68
 74
67
 0
VERTEX
 8
BUILDING_1
 10
0
 20
0
 30
0
 70
128
 71
67
 72
68
 73
84
 74
83
 0
VERTEX
 8
BUILDING_1
 10
0
 20
0
 30
0
 70
128
 71
93
 72
92
 73
65
 74
64
 0
VERTEX
 8
BUILDING_1
 10
0
 20
0
 30
0
 70
128
 71
64
 72
65
 73
69
 74
68
 0
VERTEX
 8
BUILDING_1
 10
0
 20
0
 30
0
 70
128
 71
68
 72
69
 73
85
 74
84
 0
VERTEX
 8
BUILDING_1
 10
0
 20
0
 30
0
 70
128
 71
92
 72
91
 73
66
 74
65
 0
VERTEX
 8
BUILDING_1
 10
0
 20
0
 30
0
 70
128
 71
65
 72
66
 73
70
 74
69
 0
VERTEX
 8
BUILDING_1
 10
0
 20
0
 30
0
 70
128
 71
69
 72
70
 73
86
 74
85
 0
VERTEX
 8
BUILDING_1
 10
0
 20
0
 30
0
 70
128
 71
91
 72
90
 73
89
 74
66
 0
VERTEX
 8
BUILDING_1
 10
0
 20
0
 30
0
 70
128
 71
66
 72
89
 73
88
 74
70
 0
VERTEX
 8
BUILDING_1
 10
0
 20
0
 30
0
 70
128
 71
70
 72
88
 73
87
 74
86
 0
VERTEX
 8
BUILDING_1
 10
0
 20
0
 30
0
 70
128
 71
250
 72
251
 73
71
 74
249
 0
VERTEX
 8
BUILDING_1
 10
0
 20
0
 30
0
 70
128
 71
249
 72
71
 73
75
 74
248
 0
VERTEX
 8
BUILDING_1
 10
0
 20
0
 30
0
 70
128
 71
248
 72
75
 73
246
 74
247
 0
VERTEX
 8
BUILDING_1
 10
0
 20
0
 30
0
 70
128
 71
251
 72
252
 73
72
 74
71
 0
VERTEX
 8
BUILDING_1
 10
0
 20
0
 30
0
 70
128
 71
71
 72
72
 73
76
 74
75
 0
VERTEX
 8
BUILDING_1
 10
0
 20
0
 30
0
 70
128
 71
75
 72
76
 73
245
 74
246
 0
VERTEX
 8
BUILDING_1
 10
0
 20
0
 30
0
 70
128
 71
252
 72
253
 73
73
 74
72
 0
VERTEX
 8
BUILDING_1
 10
0
 20
0
 30
0
 70
128
 71
72
 72
73
 73
77
 74
76
 0
VERTEX
 8
BUILDING_1
 10
0
 20
0
 30
0
 70
128
 71
76
 72
77
 73
244
 74
245
 0
VERTEX
 8
BUILDING_1
 10
0
 20
0
 30
0
 70
128
 71
253
 72
254
 73
74
 74
73
 0
VERTEX
 8
BUILDING_1
 10
0
 20
0
 30
0
 70
128
 71
73
 72
74
 73
78
 74
77
 0
VERTEX
 8
BUILDING_1
 10
0
 20
0
 30
0
 70
128
 71
77
 72
78
 73
243
 74
244
 0
VERTEX
 8
BUILDING_1
 10
0
 20
0
 30
0
 70
128
 71
254
 72
239
 73
240
 74
74
 0
VERTEX
 8
BUILDING_1
 10
0
 20
0
 30
0
 70
128
 71
74
 72
240
 73
241
 74
78
 0
VERTEX
 8
BUILDING_1
 10
0
 20
0
 30
0
 70
128
 71
78
 72
241
 73
242
 74
243
 0
VERTEX
 8
BUILDING_1
 10
0
 20
0
 30
0
 70
128
 71
95
 72
99
 73
100
 74
96
 0
VERTEX
 8
BUILDING_1
 10
0
 20
0
 30
0
 70
128
 71
116
 72
122
 73
117
 74
111
 0
VERTEX
 8
BUILDING_1
 10
0
 20
0
 30
0
 70
128
 71
96
 72
100
 73
101
 74
97
 0
VERTEX
 8
BUILDING_1
 10
0
 20
0
 30
0
 70
128
 71
97
 72
101
 73
102
 74
98
 0
VERTEX
 8
BUILDING_1
 10
0
 20
0
 30
0
 70
128
 71
127
 72
133
 73
134
 74
128
 0
VERTEX
 8
BUILDING_1
 10
0
 20
0
 30
0
 70
128
 71
115
 72
121
 73
122
 74
116
 0
VERTEX
 8
BUILDING_1
 10
0
 20
0
 30
0
 70
128
 71
128
 72
134
 73
135
 74
129
 0
VERTEX
 8
BUILDING_1
 10
0
 20
0
 30
0
 70
128
 71
114
 72
120
 73
121
 74
115
 0
VERTEX
 8
BUILDING_1
 10
0
 20
0
 30
0
 70
128
 71
129
 72
135
 73
136
 74
130
 0
VERTEX
 8
BUILDING_1
 10
0
 20
0
 30
0
 70
128
 71
113
 72
119
 73
120
 74
114
 0
VERTEX
 8
BUILDING_1
 10
0
 20
0
 30
0
 70
128
 71
130
 72
136
 73
137
 74
131
 0
VERTEX
 8
BUILDING_1
 10
0
 20
0
 30
0
 70
128
 71
105
 72
109
 73
110
 74
106
 0
VERTEX
 8
BUILDING_1
 10
0
 20
0
 30
0
 70
128
 71
112
 72
118
 73
119
 74
113
 0
VERTEX
 8
BUILDING_1
 10
0
 20
0
 30
0
 70
128
 71
104
 72
108
 73
109
 74
105
 0
VERTEX
 8
BUILDING_1
 10
0
 20
0
 30
0
 70
128
 71
131
 72
137
 73
138
 74
132
 0
VERTEX
 8
BUILDING_1
 10
0
 20
0
 30
0
 70
128
 71
103
 72
107
 73
108
 74
104
 0
VERTEX
 8
BUILDING_1
 10
0
 20
0
 30
0
 70
128
 71
4
 72
95
 73
96
 74
8
 0
VERTEX
 8
BUILDING_1
 10
0
 20
0
 30
0
 70
128
 71
80
 72
100
 73
99
 74
79
 0
VERTEX
 8
BUILDING_1
 10
0
 20
0
 30
0
 70
128
 71
117
 72
124
 73
123
 74
111
 0
VERTEX
 8
BUILDING_1
 10
0
 20
0
 30
0
 70
128
 71
8
 72
96
 73
97
 74
12
 0
VERTEX
 8
BUILDING_1
 10
0
 20
0
 30
0
 70
128
 71
81
 72
101
 73
100
 74
80
 0
VERTEX
 8
BUILDING_1
 10
0
 20
0
 30
0
 70
128
 71
12
 72
97
 73
98
 74
16
 0
VERTEX
 8
BUILDING_1
 10
0
 20
0
 30
0
 70
128
 71
127
 72
139
 73
140
 74
133
 0
VERTEX
 8
BUILDING_1
 10
0
 20
0
 30
0
 70
128
 71
82
 72
102
 73
101
 74
81
 0
VERTEX
 8
BUILDING_1
 10
0
 20
0
 30
0
 70
128
 71
42
 72
105
 73
106
 74
46
 0
VERTEX
 8
BUILDING_1
 10
0
 20
0
 30
0
 70
128
 71
112
 72
125
 73
126
 74
118
 0
VERTEX
 8
BUILDING_1
 10
0
 20
0
 30
0
 70
128
 71
90
 72
110
 73
109
 74
89
 0
VERTEX
 8
BUILDING_1
 10
0
 20
0
 30
0
 70
128
 71
38
 72
104
 73
105
 74
42
 0
VERTEX
 8
BUILDING_1
 10
0
 20
0
 30
0
 70
128
 71
89
 72
109
 73
108
 74
88
 0
VERTEX
 8
BUILDING_1
 10
0
 20
0
 30
0
 70
128
 71
34
 72
103
 73
104
 74
38
 0
VERTEX
 8
BUILDING_1
 10
0
 20
0
 30
0
 70
128
 71
88
 72
108
 73
107
 74
87
 0
VERTEX
 8
BUILDING_1
 10
0
 20
0
 30
0
 70
128
 71
138
 72
142
 73
141
 74
132
 0
VERTEX
 8
BUILDING_1
 10
0
 20
0
 30
0
 70
128
 71
62
 72
116
 73
111
 74
4
 0
VERTEX
 8
BUILDING_1
 10
0
 20
0
 30
0
 70
128
 71
79
 72
117
 73
122
 74
94
 0
VERTEX
 8
BUILDING_1
 10
0
 20
0
 30
0
 70
128
 71
58
 72
115
 73
116
 74
62
 0
VERTEX
 8
BUILDING_1
 10
0
 20
0
 30
0
 70
128
 71
94
 72
122
 73
121
 74
93
 0
VERTEX
 8
BUILDING_1
 10
0
 20
0
 30
0
 70
128
 71
54
 72
114
 73
115
 74
58
 0
VERTEX
 8
BUILDING_1
 10
0
 20
0
 30
0
 70
128
 71
93
 72
121
 73
120
 74
92
 0
VERTEX
 8
BUILDING_1
 10
0
 20
0
 30
0
 70
128
 71
50
 72
113
 73
114
 74
54
 0
VERTEX
 8
BUILDING_1
 10
0
 20
0
 30
0
 70
128
 71
92
 72
120
 73
119
 74
91
 0
VERTEX
 8
BUILDING_1
 10
0
 20
0
 30
0
 70
128
 71
46
 72
112
 73
113
 74
50
 0
VERTEX
 8
BUILDING_1
 10
0
 20
0
 30
0
 70
128
 71
91
 72
119
 73
118
 74
90
 0
VERTEX
 8
BUILDING_1
 10
0
 20
0
 30
0
 70
128
 71
4
 72
111
 73
123
 74
95
 0
VERTEX
 8
BUILDING_1
 10
0
 20
0
 30
0
 70
128
 71
95
 72
123
 73
124
 74
99
 0
VERTEX
 8
BUILDING_1
 10
0
 20
0
 30
0
 70
128
 71
99
 72
124
 73
117
 74
79
 0
VERTEX
 8
BUILDING_1
 10
0
 20
0
 30
0
 70
128
 71
90
 72
118
 73
126
 74
110
 0
VERTEX
 8
BUILDING_1
 10
0
 20
0
 30
0
 70
128
 71
110
 72
126
 73
125
 74
106
 0
VERTEX
 8
BUILDING_1
 10
0
 20
0
 30
0
 70
128
 71
106
 72
125
 73
112
 74
46
 0
VERTEX
 8
BUILDING_1
 10
0
 20
0
 30
0
 70
128
 71
16
 72
127
 73
128
 74
20
 0
VERTEX
 8
BUILDING_1
 10
0
 20
0
 30
0
 70
128
 71
83
 72
134
 73
133
 74
82
 0
VERTEX
 8
BUILDING_1
 10
0
 20
0
 30
0
 70
128
 71
20
 72
128
 73
129
 74
23
 0
VERTEX
 8
BUILDING_1
 10
0
 20
0
 30
0
 70
128
 71
84
 72
135
 73
134
 74
83
 0
VERTEX
 8
BUILDING_1
 10
0
 20
0
 30
0
 70
128
 71
23
 72
129
 73
130
 74
26
 0
VERTEX
 8
BUILDING_1
 10
0
 20
0
 30
0
 70
128
 71
85
 72
136
 73
135
 74
84
 0
VERTEX
 8
BUILDING_1
 10
0
 20
0
 30
0
 70
128
 71
26
 72
130
 73
131
 74
30
 0
VERTEX
 8
BUILDING_1
 10
0
 20
0
 30
0
 70
128
 71
86
 72
137
 73
136
 74
85
 0
VERTEX
 8
BUILDING_1
 10
0
 20
0
 30
0
 70
128
 71
30
 72
131
 73
132
 74
34
 0
VERTEX
 8
BUILDING_1
 10
0
 20
0
 30
0
 70
128
 71
87
 72
138
 73
137
 74
86
 0
VERTEX
 8
BUILDING_1
 10
0
 20
0
 30
0
 70
128
 71
82
 72
133
 73
140
 74
102
 0
VERTEX
 8
BUILDING_1
 10
0
 20
0
 30
0
 70
128
 71
102
 72
140
 73
139
 74
98
 0
VERTEX
 8
BUILDING_1
 10
0
 20
0
 30
0
 70
128
 71
98
 72
139
 73
127
 74
16
 0
VERTEX
 8
BUILDING_1
 10
0
 20
0
 30
0
 70
128
 71
34
 72
132
 73
141
 74
103
 0
VERTEX
 8
BUILDING_1
 10
0
 20
0
 30
0
 70
128
 71
103
 72
141
 73
142
 74
107
 0
VERTEX
 8
BUILDING_1
 10
0
 20
0
 30
0
 70
128
 71
107
 72
142
 73
138
 74
87
 0
VERTEX
 8
BUILDING_1
 10
0
 20
0
 30
0
 70
128
 71
143
 72
16
 73
20
 74
144
 0
VERTEX
 8
BUILDING_1
 10
0
 20
0
 30
0
 70
128
 71
145
 72
144
 73
308
 74
308
 0
VERTEX
 8
BUILDING_1
 10
0
 20
0
 30
0
 70
128
 71
307
 72
308
 73
144
 74
144
 0
VERTEX
 8
BUILDING_1
 10
0
 20
0
 30
0
 70
128
 71
305
 72
307
 73
144
 74
20
 0
VERTEX
 8
BUILDING_1
 10
0
 20
0
 30
0
 70
128
 71
23
 72
145
 73
308
 74
306
 0
VERTEX
 8
BUILDING_1
 10
0
 20
0
 30
0
 70
128
 71
20
 72
23
 73
306
 74
305
 0
VERTEX
 8
BUILDING_1
 10
0
 20
0
 30
0
 70
128
 71
145
 72
23
 73
26
 74
146
 0
VERTEX
 8
BUILDING_1
 10
0
 20
0
 30
0
 70
128
 71
147
 72
146
 73
310
 74
310
 0
VERTEX
 8
BUILDING_1
 10
0
 20
0
 30
0
 70
128
 71
309
 72
310
 73
146
 74
146
 0
VERTEX
 8
BUILDING_1
 10
0
 20
0
 30
0
 70
128
 71
309
 72
146
 73
26
 74
311
 0
VERTEX
 8
BUILDING_1
 10
0
 20
0
 30
0
 70
128
 71
147
 72
310
 73
312
 74
30
 0
VERTEX
 8
BUILDING_1
 10
0
 20
0
 30
0
 70
128
 71
26
 72
30
 73
312
 74
311
 0
VERTEX
 8
BUILDING_1
 10
0
 20
0
 30
0
 70
128
 71
147
 72
30
 73
34
 74
148
 0
VERTEX
 8
BUILDING_1
 10
0
 20
0
 30
0
 70
128
 71
148
 72
34
 73
38
 74
149
 0
VERTEX
 8
BUILDING_1
 10
0
 20
0
 30
0
 70
128
 71
38
 72
42
 73
333
 74
317
 0
VERTEX
 8
BUILDING_1
 10
0
 20
0
 30
0
 70
128
 71
333
 72
42
 73
150
 74
314
 0
VERTEX
 8
BUILDING_1
 10
0
 20
0
 30
0
 70
128
 71
314
 72
150
 73
149
 74
332
 0
VERTEX
 8
BUILDING_1
 10
0
 20
0
 30
0
 70
128
 71
149
 72
38
 73
317
 74
332
 0
VERTEX
 8
BUILDING_1
 10
0
 20
0
 30
0
 70
128
 71
150
 72
42
 73
46
 74
151
 0
VERTEX
 8
BUILDING_1
 10
0
 20
0
 30
0
 70
128
 71
151
 72
46
 73
50
 74
152
 0
VERTEX
 8
BUILDING_1
 10
0
 20
0
 30
0
 70
128
 71
153
 72
152
 73
316
 74
316
 0
VERTEX
 8
BUILDING_1
 10
0
 20
0
 30
0
 70
128
 71
318
 72
316
 73
152
 74
152
 0
VERTEX
 8
BUILDING_1
 10
0
 20
0
 30
0
 70
128
 71
54
 72
153
 73
316
 74
336
 0
VERTEX
 8
BUILDING_1
 10
0
 20
0
 30
0
 70
128
 71
338
 72
318
 73
152
 74
50
 0
VERTEX
 8
BUILDING_1
 10
0
 20
0
 30
0
 70
128
 71
336
 72
338
 73
50
 74
54
 0
VERTEX
 8
BUILDING_1
 10
0
 20
0
 30
0
 70
128
 71
153
 72
54
 73
58
 74
154
 0
VERTEX
 8
BUILDING_1
 10
0
 20
0
 30
0
 70
128
 71
155
 72
154
 73
320
 74
320
 0
VERTEX
 8
BUILDING_1
 10
0
 20
0
 30
0
 70
128
 71
322
 72
320
 73
154
 74
154
 0
VERTEX
 8
BUILDING_1
 10
0
 20
0
 30
0
 70
128
 71
321
 72
322
 73
154
 74
58
 0
VERTEX
 8
BUILDING_1
 10
0
 20
0
 30
0
 70
128
 71
155
 72
320
 73
319
 74
62
 0
VERTEX
 8
BUILDING_1
 10
0
 20
0
 30
0
 70
128
 71
319
 72
321
 73
58
 74
62
 0
VERTEX
 8
BUILDING_1
 10
0
 20
0
 30
0
 70
128
 71
155
 72
62
 73
4
 74
156
 0
VERTEX
 8
BUILDING_1
 10
0
 20
0
 30
0
 70
128
 71
156
 72
4
 73
8
 74
157
 0
VERTEX
 8
BUILDING_1
 10
0
 20
0
 30
0
 70
128
 71
325
 72
326
 73
157
 74
8
 0
VERTEX
 8
BUILDING_1
 10
0
 20
0
 30
0
 70
128
 71
158
 72
157
 73
326
 74
324
 0
VERTEX
 8
BUILDING_1
 10
0
 20
0
 30
0
 70
128
 71
323
 72
325
 73
8
 74
12
 0
VERTEX
 8
BUILDING_1
 10
0
 20
0
 30
0
 70
128
 71
12
 72
158
 73
324
 74
323
 0
VERTEX
 8
BUILDING_1
 10
0
 20
0
 30
0
 70
128
 71
158
 72
12
 73
16
 74
143
 0
VERTEX
 8
BUILDING_1
 10
0
 20
0
 30
0
 70
128
 71
159
 72
15
 73
19
 74
160
 0
VERTEX
 8
BUILDING_1
 10
0
 20
0
 30
0
 70
128
 71
161
 72
160
 73
330
 74
330
 0
VERTEX
 8
BUILDING_1
 10
0
 20
0
 30
0
 70
128
 71
328
 72
330
 73
160
 74
160
 0
VERTEX
 8
BUILDING_1
 10
0
 20
0
 30
0
 70
128
 71
327
 72
328
 73
160
 74
19
 0
VERTEX
 8
BUILDING_1
 10
0
 20
0
 30
0
 70
128
 71
22
 72
161
 73
330
 74
329
 0
VERTEX
 8
BUILDING_1
 10
0
 20
0
 30
0
 70
128
 71
19
 72
22
 73
329
 74
327
 0
VERTEX
 8
BUILDING_1
 10
0
 20
0
 30
0
 70
128
 71
161
 72
22
 73
25
 74
162
 0
VERTEX
 8
BUILDING_1
 10
0
 20
0
 30
0
 70
128
 71
163
 72
162
 73
334
 74
334
 0
VERTEX
 8
BUILDING_1
 10
0
 20
0
 30
0
 70
128
 71
335
 72
334
 73
162
 74
162
 0
VERTEX
 8
BUILDING_1
 10
0
 20
0
 30
0
 70
128
 71
335
 72
162
 73
25
 74
331
 0
VERTEX
 8
BUILDING_1
 10
0
 20
0
 30
0
 70
128
 71
163
 72
334
 73
353
 74
29
 0
VERTEX
 8
BUILDING_1
 10
0
 20
0
 30
0
 70
128
 71
25
 72
29
 73
353
 74
331
 0
VERTEX
 8
BUILDING_1
 10
0
 20
0
 30
0
 70
128
 71
163
 72
29
 73
33
 74
164
 0
VERTEX
 8
BUILDING_1
 10
0
 20
0
 30
0
 70
128
 71
164
 72
33
 73
37
 74
165
 0
VERTEX
 8
BUILDING_1
 10
0
 20
0
 30
0
 70
128
 71
37
 72
41
 73
356
 74
355
 0
VERTEX
 8
BUILDING_1
 10
0
 20
0
 30
0
 70
128
 71
339
 72
356
 73
41
 74
166
 0
VERTEX
 8
BUILDING_1
 10
0
 20
0
 30
0
 70
128
 71
337
 72
339
 73
166
 74
165
 0
VERTEX
 8
BUILDING_1
 10
0
 20
0
 30
0
 70
128
 71
165
 72
37
 73
355
 74
337
 0
VERTEX
 8
BUILDING_1
 10
0
 20
0
 30
0
 70
128
 71
166
 72
41
 73
45
 74
167
 0
VERTEX
 8
BUILDING_1
 10
0
 20
0
 30
0
 70
128
 71
167
 72
45
 73
49
 74
168
 0
VERTEX
 8
BUILDING_1
 10
0
 20
0
 30
0
 70
128
 71
343
 72
341
 73
168
 74
168
 0
VERTEX
 8
BUILDING_1
 10
0
 20
0
 30
0
 70
128
 71
169
 72
168
 73
341
 74
341
 0
VERTEX
 8
BUILDING_1
 10
0
 20
0
 30
0
 70
128
 71
53
 72
169
 73
341
 74
340
 0
VERTEX
 8
BUILDING_1
 10
0
 20
0
 30
0
 70
128
 71
342
 72
343
 73
168
 74
49
 0
VERTEX
 8
BUILDING_1
 10
0
 20
0
 30
0
 70
128
 71
342
 72
49
 73
53
 74
340
 0
VERTEX
 8
BUILDING_1
 10
0
 20
0
 30
0
 70
128
 71
169
 72
53
 73
57
 74
170
 0
VERTEX
 8
BUILDING_1
 10
0
 20
0
 30
0
 70
128
 71
171
 72
170
 73
345
 74
345
 0
VERTEX
 8
BUILDING_1
 10
0
 20
0
 30
0
 70
128
 71
347
 72
345
 73
170
 74
170
 0
VERTEX
 8
BUILDING_1
 10
0
 20
0
 30
0
 70
128
 71
171
 72
345
 73
344
 74
61
 0
VERTEX
 8
BUILDING_1
 10
0
 20
0
 30
0
 70
128
 71
346
 72
347
 73
170
 74
57
 0
VERTEX
 8
BUILDING_1
 10
0
 20
0
 30
0
 70
128
 71
344
 72
346
 73
57
 74
61
 0
VERTEX
 8
BUILDING_1
 10
0
 20
0
 30
0
 70
128
 71
171
 72
61
 73
3
 74
172
 0
VERTEX
 8
BUILDING_1
 10
0
 20
0
 30
0
 70
128
 71
172
 72
3
 73
7
 74
173
 0
VERTEX
 8
BUILDING_1
 10
0
 20
0
 30
0
 70
128
 71
350
 72
351
 73
173
 74
7
 0
VERTEX
 8
BUILDING_1
 10
0
 20
0
 30
0
 70
128
 71
174
 72
173
 73
351
 74
349
 0
VERTEX
 8
BUILDING_1
 10
0
 20
0
 30
0
 70
128
 71
348
 72
350
 73
7
 74
11
 0
VERTEX
 8
BUILDING_1
 10
0
 20
0
 30
0
 70
128
 71
11
 72
174
 73
349
 74
348
 0
VERTEX
 8
BUILDING_1
 10
0
 20
0
 30
0
 70
128
 71
174
 72
11
 73
15
 74
159
 0
VERTEX
 8
BUILDING_1
 10
0
 20
0
 30
0
 70
128
 71
2
 72
175
 73
176
 74
6
 0
VERTEX
 8
BUILDING_1
 10
0
 20
0
 30
0
 70
128
 71
173
 72
205
 73
204
 74
172
 0
VERTEX
 8
BUILDING_1
 10
0
 20
0
 30
0
 70
128
 71
6
 72
176
 73
177
 74
10
 0
VERTEX
 8
BUILDING_1
 10
0
 20
0
 30
0
 70
128
 71
174
 72
206
 73
205
 74
173
 0
VERTEX
 8
BUILDING_1
 10
0
 20
0
 30
0
 70
128
 71
10
 72
177
 73
178
 74
14
 0
VERTEX
 8
BUILDING_1
 10
0
 20
0
 30
0
 70
128
 71
159
 72
191
 73
206
 74
174
 0
VERTEX
 8
BUILDING_1
 10
0
 20
0
 30
0
 70
128
 71
14
 72
178
 73
179
 74
18
 0
VERTEX
 8
BUILDING_1
 10
0
 20
0
 30
0
 70
128
 71
160
 72
192
 73
191
 74
159
 0
VERTEX
 8
BUILDING_1
 10
0
 20
0
 30
0
 70
128
 71
18
 72
179
 73
180
 74
21
 0
VERTEX
 8
BUILDING_1
 10
0
 20
0
 30
0
 70
128
 71
161
 72
193
 73
192
 74
160
 0
VERTEX
 8
BUILDING_1
 10
0
 20
0
 30
0
 70
128
 71
21
 72
180
 73
181
 74
24
 0
VERTEX
 8
BUILDING_1
 10
0
 20
0
 30
0
 70
128
 71
162
 72
194
 73
193
 74
161
 0
VERTEX
 8
BUILDING_1
 10
0
 20
0
 30
0
 70
128
 71
24
 72
181
 73
182
 74
28
 0
VERTEX
 8
BUILDING_1
 10
0
 20
0
 30
0
 70
128
 71
163
 72
195
 73
194
 74
162
 0
VERTEX
 8
BUILDING_1
 10
0
 20
0
 30
0
 70
128
 71
28
 72
182
 73
183
 74
32
 0
VERTEX
 8
BUILDING_1
 10
0
 20
0
 30
0
 70
128
 71
164
 72
196
 73
195
 74
163
 0
VERTEX
 8
BUILDING_1
 10
0
 20
0
 30
0
 70
128
 71
32
 72
183
 73
184
 74
36
 0
VERTEX
 8
BUILDING_1
 10
0
 20
0
 30
0
 70
128
 71
165
 72
197
 73
196
 74
164
 0
VERTEX
 8
BUILDING_1
 10
0
 20
0
 30
0
 70
128
 71
36
 72
184
 73
185
 74
40
 0
VERTEX
 8
BUILDING_1
 10
0
 20
0
 30
0
 70
128
 71
166
 72
198
 73
197
 74
165
 0
VERTEX
 8
BUILDING_1
 10
0
 20
0
 30
0
 70
128
 71
40
 72
185
 73
186
 74
44
 0
VERTEX
 8
BUILDING_1
 10
0
 20
0
 30
0
 70
128
 71
167
 72
199
 73
198
 74
166
 0
VERTEX
 8
BUILDING_1
 10
0
 20
0
 30
0
 70
128
 71
44
 72
186
 73
187
 74
48
 0
VERTEX
 8
BUILDING_1
 10
0
 20
0
 30
0
 70
128
 71
168
 72
200
 73
199
 74
167
 0
VERTEX
 8
BUILDING_1
 10
0
 20
0
 30
0
 70
128
 71
48
 72
187
 73
188
 74
52
 0
VERTEX
 8
BUILDING_1
 10
0
 20
0
 30
0
 70
128
 71
169
 72
201
 73
200
 74
168
 0
VERTEX
 8
BUILDING_1
 10
0
 20
0
 30
0
 70
128
 71
52
 72
188
 73
189
 74
56
 0
VERTEX
 8
BUILDING_1
 10
0
 20
0
 30
0
 70
128
 71
170
 72
202
 73
201
 74
169
 0
VERTEX
 8
BUILDING_1
 10
0
 20
0
 30
0
 70
128
 71
56
 72
189
 73
190
 74
60
 0
VERTEX
 8
BUILDING_1
 10
0
 20
0
 30
0
 70
128
 71
171
 72
203
 73
202
 74
170
 0
VERTEX
 8
BUILDING_1
 10
0
 20
0
 30
0
 70
128
 71
60
 72
190
 73
175
 74
2
 0
VERTEX
 8
BUILDING_1
 10
0
 20
0
 30
0
 70
128
 71
172
 72
204
 73
203
 74
171
 0
VERTEX
 8
BUILDING_1
 10
0
 20
0
 30
0
 70
128
 71
3
 72
207
 73
208
 74
7
 0
VERTEX
 8
BUILDING_1
 10
0
 20
0
 30
0
 70
128
 71
157
 72
237
 73
236
 74
156
 0
VERTEX
 8
BUILDING_1
 10
0
 20
0
 30
0
 70
128
 71
7
 72
208
 73
209
 74
11
 0
VERTEX
 8
BUILDING_1
 10
0
 20
0
 30
0
 70
128
 71
158
 72
238
 73
237
 74
157
 0
VERTEX
 8
BUILDING_1
 10
0
 20
0
 30
0
 70
128
 71
11
 72
209
 73
210
 74
15
 0
VERTEX
 8
BUILDING_1
 10
0
 20
0
 30
0
 70
128
 71
143
 72
223
 73
238
 74
158
 0
VERTEX
 8
BUILDING_1
 10
0
 20
0
 30
0
 70
128
 71
15
 72
210
 73
211
 74
19
 0
VERTEX
 8
BUILDING_1
 10
0
 20
0
 30
0
 70
128
 71
144
 72
224
 73
223
 74
143
 0
VERTEX
 8
BUILDING_1
 10
0
 20
0
 30
0
 70
128
 71
19
 72
211
 73
212
 74
22
 0
VERTEX
 8
BUILDING_1
 10
0
 20
0
 30
0
 70
128
 71
145
 72
225
 73
224
 74
144
 0
VERTEX
 8
BUILDING_1
 10
0
 20
0
 30
0
 70
128
 71
22
 72
212
 73
213
 74
25
 0
VERTEX
 8
BUILDING_1
 10
0
 20
0
 30
0
 70
128
 71
146
 72
226
 73
225
 74
145
 0
VERTEX
 8
BUILDING_1
 10
0
 20
0
 30
0
 70
128
 71
25
 72
213
 73
214
 74
29
 0
VERTEX
 8
BUILDING_1
 10
0
 20
0
 30
0
 70
128
 71
147
 72
227
 73
226
 74
146
 0
VERTEX
 8
BUILDING_1
 10
0
 20
0
 30
0
 70
128
 71
29
 72
214
 73
215
 74
33
 0
VERTEX
 8
BUILDING_1
 10
0
 20
0
 30
0
 70
128
 71
148
 72
228
 73
227
 74
147
 0
VERTEX
 8
BUILDING_1
 10
0
 20
0
 30
0
 70
128
 71
33
 72
215
 73
216
 74
37
 0
VERTEX
 8
BUILDING_1
 10
0
 20
0
 30
0
 70
128
 71
149
 72
229
 73
228
 74
148
 0
VERTEX
 8
BUILDING_1
 10
0
 20
0
 30
0
 70
128
 71
37
 72
216
 73
217
 74
41
 0
VERTEX
 8
BUILDING_1
 10
0
 20
0
 30
0
 70
128
 71
150
 72
230
 73
229
 74
149
 0
VERTEX
 8
BUILDING_1
 10
0
 20
0
 30
0
 70
128
 71
41
 72
217
 73
218
 74
45
 0
VERTEX
 8
BUILDING_1
 10
0
 20
0
 30
0
 70
128
 71
151
 72
231
 73
230
 74
150
 0
VERTEX
 8
BUILDING_1
 10
0
 20
0
 30
0
 70
128
 71
45
 72
218
 73
219
 74
49
 0
VERTEX
 8
BUILDING_1
 10
0
 20
0
 30
0
 70
128
 71
152
 72
232
 73
231
 74
151
 0
VERTEX
 8
BUILDING_1
 10
0
 20
0
 30
0
 70
128
 71
49
 72
219
 73
220
 74
53
 0
VERTEX
 8
BUILDING_1
 10
0
 20
0
 30
0
 70
128
 71
153
 72
233
 73
232
 74
152
 0
VERTEX
 8
BUILDING_1
 10
0
 20
0
 30
0
 70
128
 71
53
 72
220
 73
221
 74
57
 0
VERTEX
 8
BUILDING_1
 10
0
 20
0
 30
0
 70
128
 71
154
 72
234
 73
233
 74
153
 0
VERTEX
 8
BUILDING_1
 10
0
 20
0
 30
0
 70
128
 71
57
 72
221
 73
222
 74
61
 0
VERTEX
 8
BUILDING_1
 10
0
 20
0
 30
0
 70
128
 71
155
 72
235
 73
234
 74
154
 0
VERTEX
 8
BUILDING_1
 10
0
 20
0
 30
0
 70
128
 71
61
 72
222
 73
207
 74
3
 0
VERTEX
 8
BUILDING_1
 10
0
 20
0
 30
0
 70
128
 71
156
 72
236
 73
235
 74
155
 0
VERTEX
 8
BUILDING_1
 10
0
 20
0
 30
0
 70
128
 71
264
 72
280
 73
279
 74
263
 0
VERTEX
 8
BUILDING_1
 10
0
 20
0
 30
0
 70
128
 71
265
 72
281
 73
280
 74
264
 0
VERTEX
 8
BUILDING_1
 10
0
 20
0
 30
0
 70
128
 71
263
 72
279
 73
278
 74
262
 0
VERTEX
 8
BUILDING_1
 10
0
 20
0
 30
0
 70
128
 71
262
 72
278
 73
277
 74
261
 0
VERTEX
 8
BUILDING_1
 10
0
 20
0
 30
0
 70
128
 71
261
 72
277
 73
276
 74
260
 0
VERTEX
 8
BUILDING_1
 10
0
 20
0
 30
0
 70
128
 71
266
 72
282
 73
281
 74
265
 0
VERTEX
 8
BUILDING_1
 10
0
 20
0
 30
0
 70
128
 71
352
 72
292
 73
260
 74
276
 0
VERTEX
 8
BUILDING_1
 10
0
 20
0
 30
0
 70
128
 71
275
 72
286
 73
352
 74
276
 0
VERTEX
 8
BUILDING_1
 10
0
 20
0
 30
0
 70
128
 71
267
 72
283
 73
282
 74
266
 0
VERTEX
 8
BUILDING_1
 10
0
 20
0
 30
0
 70
128
 71
286
 72
275
 73
274
 74
294
 0
VERTEX
 8
BUILDING_1
 10
0
 20
0
 30
0
 70
128
 71
268
 72
284
 73
283
 74
267
 0
VERTEX
 8
BUILDING_1
 10
0
 20
0
 30
0
 70
128
 71
294
 72
274
 73
273
 74
354
 0
VERTEX
 8
BUILDING_1
 10
0
 20
0
 30
0
 70
128
 71
273
 72
259
 73
293
 74
354
 0
VERTEX
 8
BUILDING_1
 10
0
 20
0
 30
0
 70
128
 71
256
 72
270
 73
269
 74
255
 0
VERTEX
 8
BUILDING_1
 10
0
 20
0
 30
0
 70
128
 71
255
 72
269
 73
284
 74
268
 0
VERTEX
 8
BUILDING_1
 10
0
 20
0
 30
0
 70
128
 71
257
 72
271
 73
270
 74
256
 0
VERTEX
 8
BUILDING_1
 10
0
 20
0
 30
0
 70
128
 71
259
 72
273
 73
272
 74
258
 0
VERTEX
 8
BUILDING_1
 10
0
 20
0
 30
0
 70
128
 71
258
 72
272
 73
271
 74
257
 0
VERTEX
 8
BUILDING_1
 10
0
 20
0
 30
0
 70
128
 71
43
 72
264
 73
263
 74
39
 0
VERTEX
 8
BUILDING_1
 10
0
 20
0
 30
0
 70
128
 71
249
 72
279
 73
280
 74
250
 0
VERTEX
 8
BUILDING_1
 10
0
 20
0
 30
0
 70
128
 71
47
 72
265
 73
264
 74
43
 0
VERTEX
 8
BUILDING_1
 10
0
 20
0
 30
0
 70
128
 71
250
 72
280
 73
281
 74
251
 0
VERTEX
 8
BUILDING_1
 10
0
 20
0
 30
0
 70
128
 71
39
 72
263
 73
262
 74
35
 0
VERTEX
 8
BUILDING_1
 10
0
 20
0
 30
0
 70
128
 71
248
 72
278
 73
279
 74
249
 0
VERTEX
 8
BUILDING_1
 10
0
 20
0
 30
0
 70
128
 71
35
 72
262
 73
261
 74
31
 0
VERTEX
 8
BUILDING_1
 10
0
 20
0
 30
0
 70
128
 71
247
 72
277
 73
278
 74
248
 0
VERTEX
 8
BUILDING_1
 10
0
 20
0
 30
0
 70
128
 71
31
 72
261
 73
260
 74
27
 0
VERTEX
 8
BUILDING_1
 10
0
 20
0
 30
0
 70
128
 71
246
 72
276
 73
277
 74
247
 0
VERTEX
 8
BUILDING_1
 10
0
 20
0
 30
0
 70
128
 71
51
 72
266
 73
265
 74
47
 0
VERTEX
 8
BUILDING_1
 10
0
 20
0
 30
0
 70
128
 71
251
 72
281
 73
282
 74
252
 0
VERTEX
 8
BUILDING_1
 10
0
 20
0
 30
0
 70
128
 71
296
 72
27
 73
260
 74
292
 0
VERTEX
 8
BUILDING_1
 10
0
 20
0
 30
0
 70
128
 71
245
 72
275
 73
276
 74
246
 0
VERTEX
 8
BUILDING_1
 10
0
 20
0
 30
0
 70
128
 71
55
 72
267
 73
266
 74
51
 0
VERTEX
 8
BUILDING_1
 10
0
 20
0
 30
0
 70
128
 71
252
 72
282
 73
283
 74
253
 0
VERTEX
 8
BUILDING_1
 10
0
 20
0
 30
0
 70
128
 71
244
 72
274
 73
275
 74
245
 0
VERTEX
 8
BUILDING_1
 10
0
 20
0
 30
0
 70
128
 71
59
 72
268
 73
267
 74
55
 0
VERTEX
 8
BUILDING_1
 10
0
 20
0
 30
0
 70
128
 71
253
 72
283
 73
284
 74
254
 0
VERTEX
 8
BUILDING_1
 10
0
 20
0
 30
0
 70
128
 71
293
 72
259
 73
17
 74
285
 0
VERTEX
 8
BUILDING_1
 10
0
 20
0
 30
0
 70
128
 71
243
 72
273
 73
274
 74
244
 0
VERTEX
 8
BUILDING_1
 10
0
 20
0
 30
0
 70
128
 71
5
 72
256
 73
255
 74
1
 0
VERTEX
 8
BUILDING_1
 10
0
 20
0
 30
0
 70
128
 71
239
 72
269
 73
270
 74
240
 0
VERTEX
 8
BUILDING_1
 10
0
 20
0
 30
0
 70
128
 71
1
 72
255
 73
268
 74
59
 0
VERTEX
 8
BUILDING_1
 10
0
 20
0
 30
0
 70
128
 71
254
 72
284
 73
269
 74
239
 0
VERTEX
 8
BUILDING_1
 10
0
 20
0
 30
0
 70
128
 71
9
 72
257
 73
256
 74
5
 0
VERTEX
 8
BUILDING_1
 10
0
 20
0
 30
0
 70
128
 71
240
 72
270
 73
271
 74
241
 0
VERTEX
 8
BUILDING_1
 10
0
 20
0
 30
0
 70
128
 71
17
 72
259
 73
258
 74
13
 0
VERTEX
 8
BUILDING_1
 10
0
 20
0
 30
0
 70
128
 71
242
 72
272
 73
273
 74
243
 0
VERTEX
 8
BUILDING_1
 10
0
 20
0
 30
0
 70
128
 71
13
 72
258
 73
257
 74
9
 0
VERTEX
 8
BUILDING_1
 10
0
 20
0
 30
0
 70
128
 71
241
 72
271
 73
272
 74
242
 0
SEQEND
 0
POLYLINE
 8
CUBE
 66
1
 10
0.0
 20
0.0
 30
0.0
 70
64
 71
10
 72
7
 0
VERTEX
 8
CUBE
 10
9.6811
 20
-5.7363
 30
4.1436
 70
192
 0
VERTEX
 8
CUBE
 10
9.6811
 20
-5.7363
 30
4.5724
 70
192
 0
VERTEX
 8
CUBE
 10
9.6811
 20
-4.8514
 30
4.1436
 70
192
 0
VERTEX
 8
CUBE
 10
9.6811
 20
-4.8514
 30
4.5724
 70
192
 0
VERTEX
 8
CUBE
 10
9.7614
 20
-5.7363
 30
4.5724
 70
192
 0
VERTEX
 8
CUBE
 10
9.7614
 20
-5.7363
 30
4.1436
 70
192
 0
VERTEX
 8
CUBE
 10
9.7614
 20
-4.8514
 30
4.1436
 70
192
 0
VERTEX
 8
CUBE
 10
9.7614
 20
-4.8514
 30
4.5724
 70
192
 0
VERTEX
 8
CUBE
 10
9.7614
 20
-5.3048
 30
4.5724
 70
192
 0
VERTEX
 8
CUBE
 10
9.7614
 20
-5.3048
 30
4.1436
 70
192
 0
VERTEX
 8
CUBE
 10
0
 20
0
 30
0
 70
128
 71
1
 72
6
 73
5
 74
2
 0
VERTEX
 8
CUBE
 10
0
 20
0
 30
0
 70
128
 71
4
 72
8
 73
7
 74
3
 0
VERTEX
 8
CUBE
 10
0
 20
0
 30
0
 70
128
 71
4
 72
3
 73
1
 74
2
 0
VERTEX
 8
CUBE
 10
0
 20
0
 30
0
 70
128
 71
2
 72
5
 73
9
 74
4
 0
VERTEX
 8
CUBE
 10
0
 20
0
 30
0
 70
128
 71
8
 72
4
 73
9
 74
9
 0
VERTEX
 8
CUBE
 10
0
 20
0
 30
0
 70
128
 71
7
 72
10
 73
3
 74
3
 0
VERTEX
 8
CUBE
 10
0
 20
0
 30
0
 70
128
 71
1
 72
3
 73
10
 74
6
 0
SEQEND
 0
POLYLINE
 8
CUBE_1
 66
1
 10
0.0
 20
0.0
 30
0.0
 70
64
 71
10
 72
7
 0
VERTEX
 8
CUBE_1
 10
9.6811
 20
-7.4363
 30
4.1436
 70
192
 0
VERTEX
 8
CUBE_1
 10
9.6811
 20
-7.4363
 30
4.5724
 70
192
 0
VERTEX
 8
CUBE_1
 10
9.6811
 20
-6.5514
 30
4.1436
 70
192
 0
VERTEX
 8
CUBE_1
 10
9.6811
 20
-6.5514
 30
4.5724
 70
192
 0
VERTEX
 8
CUBE_1
 10
9.7614
 20
-7.4363
 30
4.5724
 70
192
 0
VERTEX
 8
CUBE_1
 10
9.7614
 20
-7.4363
 30
4.1436
 70
192
 0
VERTEX
 8
CUBE_1
 10
9.7614
 20
-6.5514
 30
4.1436
 70
192
 0
VERTEX
 8
CUBE_1
 10
9.7614
 20
-6.5514
 30
4.5724
 70
192
 0
VERTEX
 8
CUBE_1
 10
9.7614
 20
-6.9816
 30
4.5724
 70
192
 0
VERTEX
 8
CUBE_1
 10
9.7614
 20
-6.9816
 30
4.1436
 70
192
 0
VERTEX
 8
CUBE_1
 10
0
 20
0
 30
0
 70
128
 71
1
 72
6
 73
5
 74
2
 0
VERTEX
 8
CUBE_1
 10
0
 20
0
 30
0
 70
128
 71
4
 72
8
 73
7
 74
3
 0
VERTEX
 8
CUBE_1
 10
0
 20
0
 30
0
 70
128
 71
4
 72
3
 73
1
 74
2
 0
VERTEX
 8
CUBE_1
 10
0
 20
0
 30
0
 70
128
 71
2
 72
5
 73
9
 74
4
 0
VERTEX
 8
CUBE_1
 10
0
 20
0
 30
0
 70
128
 71
8
 72
4
 73
9
 74
9
 0
VERTEX
 8
CUBE_1
 10
0
 20
0
 30
0
 70
128
 71
7
 72
10
 73
1
 74
3
 0
VERTEX
 8
CUBE_1
 10
0
 20
0
 30
0
 70
128
 71
1
 72
10
 73
6
 74
6
 0
SEQEND
 0
POLYLINE
 8
CUBE_2
 66
1
 10
0.0
 20
0.0
 30
0.0
 70
64
 71
16
 72
11
 0
VERTEX
 8
CUBE_2
 10
9.7173
 20
-5.8382
 30
3.8027
 70
192
 0
VERTEX
 8
CUBE_2
 10
9.7173
 20
-5.8382
 30
4.8221
 70
192
 0
VERTEX
 8
CUBE_2
 10
9.7173
 20
-6.4816
 30
3.8027
 70
192
 0
VERTEX
 8
CUBE_2
 10
9.7173
 20
-6.4816
 30
4.8221
 70
192
 0
VERTEX
 8
CUBE_2
 10
9.7614
 20
-6.4816
 30
4.8221
 70
192
 0
VERTEX
 8
CUBE_2
 10
9.7614
 20
-5.8382
 30
4.8221
 70
192
 0
VERTEX
 8
CUBE_2
 10
9.8114
 20
-6.4816
 30
3.8027
 70
192
 0
VERTEX
 8
CUBE_2
 10
9.8114
 20
-5.8382
 30
3.8027
 70
192
 0
VERTEX
 8
CUBE_2
 10
9.7614
 20
-6.4227
 30
4.8221
 70
192
 0
VERTEX
 8
CUBE_2
 10
9.7614
 20
-6.4816
 30
3.8172
 70
192
 0
VERTEX
 8
CUBE_2
 10
9.7614
 20
-5.8382
 30
3.8172
 70
192
 0
VERTEX
 8
CUBE_2
 10
9.7614
 20
-5.8638
 30
4.8221
 70
192
 0
VERTEX
 8
CUBE_2
 10
9.8114
 20
-5.8638
 30
3.8027
 70
192
 0
VERTEX
 8
CUBE_2
 10
9.8114
 20
-5.8382
 30
3.8172
 70
192
 0
VERTEX
 8
CUBE_2
 10
9.8114
 20
-6.4816
 30
3.8172
 70
192
 0
VERTEX
 8
CUBE_2
 10
9.8114
 20
-6.4227
 30
3.8027
 70
192
 0
VERTEX
 8
CUBE_2
 10
0
 20
0
 30
0
 70
128
 71
6
 72
11
 73
1
 74
2
 0
VERTEX
 8
CUBE_2
 10
0
 20
0
 30
0
 70
128
 71
14
 72
8
 73
1
 74
11
 0
VERTEX
 8
CUBE_2
 10
0
 20
0
 30
0
 70
128
 71
2
 72
1
 73
3
 74
4
 0
VERTEX
 8
CUBE_2
 10
0
 20
0
 30
0
 70
128
 71
4
 72
3
 73
10
 74
5
 0
VERTEX
 8
CUBE_2
 10
0
 20
0
 30
0
 70
128
 71
15
 72
10
 73
3
 74
7
 0
VERTEX
 8
CUBE_2
 10
0
 20
0
 30
0
 70
128
 71
5
 72
9
 73
4
 74
4
 0
VERTEX
 8
CUBE_2
 10
0
 20
0
 30
0
 70
128
 71
12
 72
6
 73
2
 74
4
 0
VERTEX
 8
CUBE_2
 10
0
 20
0
 30
0
 70
128
 71
4
 72
9
 73
12
 74
12
 0
VERTEX
 8
CUBE_2
 10
0
 20
0
 30
0
 70
128
 71
8
 72
13
 73
1
 74
1
 0
VERTEX
 8
CUBE_2
 10
0
 20
0
 30
0
 70
128
 71
16
 72
7
 73
3
 74
1
 0
VERTEX
 8
CUBE_2
 10
0
 20
0
 30
0
 70
128
 71
1
 72
13
 73
16
 74
16
 0
SEQEND
 0
POLYLINE
 8
CUBE_11
 66
1
 10
0.0
 20
0.0
 30
0.0
 70
64
 71
8
 72
5
 0
VERTEX
 8
CUBE_11
 10
8.2855
 20
-4.8495
 30
5.4511
 70
192
 0
VERTEX
 8
CUBE_11
 10
8.2855
 20
-4.8495
 30
6.1802
 70
192
 0
VERTEX
 8
CUBE_11
 10
8.7154
 20
-4.8495
 30
5.4511
 70
192
 0
VERTEX
 8
CUBE_11
 10
8.7154
 20
-4.8495
 30
6.1802
 70
192
 0
VERTEX
 8
CUBE_11
 10
8.7154
 20
-4.7459
 30
6.1802
 70
192
 0
VERTEX
 8
CUBE_11
 10
8.7154
 20
-4.7459
 30
5.4511
 70
192
 0
VERTEX
 8
CUBE_11
 10
8.2855
 20
-4.7459
 30
6.1802
 70
192
 0
VERTEX
 8
CUBE_11
 10
8.2855
 20
-4.7459
 30
5.4511
 70
192
 0
VERTEX
 8
CUBE_11
 10
0
 20
0
 30
0
 70
128
 71
2
 72
1
 73
3
 74
4
 0
VERTEX
 8
CUBE_11
 10
0
 20
0
 30
0
 70
128
 71
3
 72
6
 73
5
 74
4
 0
VERTEX
 8
CUBE_11
 10
0
 20
0
 30
0
 70
128
 71
2
 72
7
 73
8
 74
1
 0
VERTEX
 8
CUBE_11
 10
0
 20
0
 30
0
 70
128
 71
4
 72
5
 73
7
 74
2
 0
VERTEX
 8
CUBE_11
 10
0
 20
0
 30
0
 70
128
 71
1
 72
8
 73
6
 74
3
 0
SEQEND
 0
POLYLINE
 8
CUBE_10
 66
1
 10
0.0
 20
0.0
 30
0.0
 70
64
 71
8
 72
5
 0
VERTEX
 8
CUBE_10
 10
8.2855
 20
-4.8495
 30
6.8511
 70
192
 0
VERTEX
 8
CUBE_10
 10
8.2855
 20
-4.8495
 30
7.5802
 70
192
 0
VERTEX
 8
CUBE_10
 10
8.7154
 20
-4.8495
 30
6.8511
 70
192
 0
VERTEX
 8
CUBE_10
 10
8.7154
 20
-4.8495
 30
7.5802
 70
192
 0
VERTEX
 8
CUBE_10
 10
8.7154
 20
-4.7459
 30
7.5802
 70
192
 0
VERTEX
 8
CUBE_10
 10
8.7154
 20
-4.7459
 30
6.8511
 70
192
 0
VERTEX
 8
CUBE_10
 10
8.2855
 20
-4.7459
 30
7.5802
 70
192
 0
VERTEX
 8
CUBE_10
 10
8.2855
 20
-4.7459
 30
6.8511
 70
192
 0
VERTEX
 8
CUBE_10
 10
0
 20
0
 30
0
 70
128
 71
2
 72
1
 73
3
 74
4
 0
VERTEX
 8
CUBE_10
 10
0
 20
0
 30
0
 70
128
 71
3
 72
6
 73
5
 74
4
 0
VERTEX
 8
CUBE_10
 10
0
 20
0
 30
0
 70
128
 71
2
 72
7
 73
8
 74
1
 0
VERTEX
 8
CUBE_10
 10
0
 20
0
 30
0
 70
128
 71
4
 72
5
 73
7
 74
2
 0
VERTEX
 8
CUBE_10
 10
0
 20
0
 30
0
 70
128
 71
1
 72
8
 73
6
 74
3
 0
SEQEND
 0
POLYLINE
 8
CUBE_9
 66
1
 10
0.0
 20
0.0
 30
0.0
 70
64
 71
8
 72
5
 0
VERTEX
 8
CUBE_9
 10
7.3187
 20
-6.9014
 30
6.8511
 70
192
 0
VERTEX
 8
CUBE_9
 10
7.3187
 20
-6.9014
 30
7.5802
 70
192
 0
VERTEX
 8
CUBE_9
 10
7.3187
 20
-6.4962
 30
6.8511
 70
192
 0
VERTEX
 8
CUBE_9
 10
7.3187
 20
-6.4962
 30
7.5802
 70
192
 0
VERTEX
 8
CUBE_9
 10
7.2284
 20
-6.9014
 30
7.5802
 70
192
 0
VERTEX
 8
CUBE_9
 10
7.2284
 20
-6.9014
 30
6.8511
 70
192
 0
VERTEX
 8
CUBE_9
 10
7.2284
 20
-6.4962
 30
7.5802
 70
192
 0
VERTEX
 8
CUBE_9
 10
7.2284
 20
-6.4962
 30
6.8511
 70
192
 0
VERTEX
 8
CUBE_9
 10
0
 20
0
 30
0
 70
128
 71
2
 72
5
 73
6
 74
1
 0
VERTEX
 8
CUBE_9
 10
0
 20
0
 30
0
 70
128
 71
2
 72
1
 73
3
 74
4
 0
VERTEX
 8
CUBE_9
 10
0
 20
0
 30
0
 70
128
 71
3
 72
8
 73
7
 74
4
 0
VERTEX
 8
CUBE_9
 10
0
 20
0
 30
0
 70
128
 71
4
 72
7
 73
5
 74
2
 0
VERTEX
 8
CUBE_9
 10
0
 20
0
 30
0
 70
128
 71
1
 72
6
 73
8
 74
3
 0
SEQEND
 0
POLYLINE
 8
CUBE_8
 66
1
 10
0.0
 20
0.0
 30
0.0
 70
64
 71
8
 72
5
 0
VERTEX
 8
CUBE_8
 10
7.3187
 20
-5.7805
 30
6.8511
 70
192
 0
VERTEX
 8
CUBE_8
 10
7.3187
 20
-5.7805
 30
7.5802
 70
192
 0
VERTEX
 8
CUBE_8
 10
7.3187
 20
-5.3754
 30
6.8511
 70
192
 0
VERTEX
 8
CUBE_8
 10
7.3187
 20
-5.3754
 30
7.5802
 70
192
 0
VERTEX
 8
CUBE_8
 10
7.2284
 20
-5.7805
 30
7.5802
 70
192
 0
VERTEX
 8
CUBE_8
 10
7.2284
 20
-5.7805
 30
6.8511
 70
192
 0
VERTEX
 8
CUBE_8
 10
7.2284
 20
-5.3754
 30
7.5802
 70
192
 0
VERTEX
 8
CUBE_8
 10
7.2284
 20
-5.3754
 30
6.8511
 70
192
 0
VERTEX
 8
CUBE_8
 10
0
 20
0
 30
0
 70
128
 71
2
 72
5
 73
6
 74
1
 0
VERTEX
 8
CUBE_8
 10
0
 20
0
 30
0
 70
128
 71
2
 72
1
 73
3
 74
4
 0
VERTEX
 8
CUBE_8
 10
0
 20
0
 30
0
 70
128
 71
3
 72
8
 73
7
 74
4
 0
VERTEX
 8
CUBE_8
 10
0
 20
0
 30
0
 70
128
 71
4
 72
7
 73
5
 74
2
 0
VERTEX
 8
CUBE_8
 10
0
 20
0
 30
0
 70
128
 71
1
 72
6
 73
8
 74
3
 0
SEQEND
 0
POLYLINE
 8
CUBE_7
 66
1
 10
0.0
 20
0.0
 30
0.0
 70
64
 71
8
 72
5
 0
VERTEX
 8
CUBE_7
 10
7.3187
 20
-6.9018
 30
5.4884
 70
192
 0
VERTEX
 8
CUBE_7
 10
7.3187
 20
-6.9018
 30
6.2175
 70
192
 0
VERTEX
 8
CUBE_7
 10
7.3187
 20
-6.4967
 30
5.4884
 70
192
 0
VERTEX
 8
CUBE_7
 10
7.3187
 20
-6.4967
 30
6.2175
 70
192
 0
VERTEX
 8
CUBE_7
 10
7.2284
 20
-6.9018
 30
6.2175
 70
192
 0
VERTEX
 8
CUBE_7
 10
7.2284
 20
-6.9018
 30
5.4884
 70
192
 0
VERTEX
 8
CUBE_7
 10
7.2284
 20
-6.4967
 30
6.2175
 70
192
 0
VERTEX
 8
CUBE_7
 10
7.2284
 20
-6.4967
 30
5.4884
 70
192
 0
VERTEX
 8
CUBE_7
 10
0
 20
0
 30
0
 70
128
 71
2
 72
5
 73
6
 74
1
 0
VERTEX
 8
CUBE_7
 10
0
 20
0
 30
0
 70
128
 71
2
 72
1
 73
3
 74
4
 0
VERTEX
 8
CUBE_7
 10
0
 20
0
 30
0
 70
128
 71
3
 72
8
 73
7
 74
4
 0
VERTEX
 8
CUBE_7
 10
0
 20
0
 30
0
 70
128
 71
4
 72
7
 73
5
 74
2
 0
VERTEX
 8
CUBE_7
 10
0
 20
0
 30
0
 70
128
 71
1
 72
6
 73
8
 74
3
 0
SEQEND
 0
POLYLINE
 8
CUBE_6
 66
1
 10
0.0
 20
0.0
 30
0.0
 70
64
 71
8
 72
5
 0
VERTEX
 8
CUBE_6
 10
7.3187
 20
-5.7852
 30
5.4884
 70
192
 0
VERTEX
 8
CUBE_6
 10
7.3187
 20
-5.7852
 30
6.2175
 70
192
 0
VERTEX
 8
CUBE_6
 10
7.3187
 20
-5.3801
 30
5.4884
 70
192
 0
VERTEX
 8
CUBE_6
 10
7.3187
 20
-5.3801
 30
6.2175
 70
192
 0
VERTEX
 8
CUBE_6
 10
7.2284
 20
-5.7852
 30
6.2175
 70
192
 0
VERTEX
 8
CUBE_6
 10
7.2284
 20
-5.7852
 30
5.4884
 70
192
 0
VERTEX
 8
CUBE_6
 10
7.2284
 20
-5.3801
 30
6.2175
 70
192
 0
VERTEX
 8
CUBE_6
 10
7.2284
 20
-5.3801
 30
5.4884
 70
192
 0
VERTEX
 8
CUBE_6
 10
0
 20
0
 30
0
 70
128
 71
2
 72
5
 73
6
 74
1
 0
VERTEX
 8
CUBE_6
 10
0
 20
0
 30
0
 70
128
 71
2
 72
1
 73
3
 74
4
 0
VERTEX
 8
CUBE_6
 10
0
 20
0
 30
0
 70
128
 71
3
 72
8
 73
7
 74
4
 0
VERTEX
 8
CUBE_6
 10
0
 20
0
 30
0
 70
128
 71
4
 72
7
 73
5
 74
2
 0
VERTEX
 8
CUBE_6
 10
0
 20
0
 30
0
 70
128
 71
1
 72
6
 73
8
 74
3
 0
SEQEND
 0
POLYLINE
 8
CUBE_5
 66
1
 10
0.0
 20
0.0
 30
0.0
 70
64
 71
8
 72
5
 0
VERTEX
 8
CUBE_5
 10
8.7154
 20
-7.4444
 30
5.4511
 70
192
 0
VERTEX
 8
CUBE_5
 10
8.7154
 20
-7.4444
 30
6.1802
 70
192
 0
VERTEX
 8
CUBE_5
 10
8.2855
 20
-7.4444
 30
5.4511
 70
192
 0
VERTEX
 8
CUBE_5
 10
8.2855
 20
-7.4444
 30
6.1802
 70
192
 0
VERTEX
 8
CUBE_5
 10
8.7154
 20
-7.5405
 30
6.1802
 70
192
 0
VERTEX
 8
CUBE_5
 10
8.7154
 20
-7.5405
 30
5.4511
 70
192
 0
VERTEX
 8
CUBE_5
 10
8.2855
 20
-7.5405
 30
6.1802
 70
192
 0
VERTEX
 8
CUBE_5
 10
8.2855
 20
-7.5405
 30
5.4511
 70
192
 0
VERTEX
 8
CUBE_5
 10
0
 20
0
 30
0
 70
128
 71
2
 72
5
 73
6
 74
1
 0
VERTEX
 8
CUBE_5
 10
0
 20
0
 30
0
 70
128
 71
2
 72
1
 73
3
 74
4
 0
VERTEX
 8
CUBE_5
 10
0
 20
0
 30
0
 70
128
 71
3
 72
8
 73
7
 74
4
 0
VERTEX
 8
CUBE_5
 10
0
 20
0
 30
0
 70
128
 71
4
 72
7
 73
5
 74
2
 0
VERTEX
 8
CUBE_5
 10
0
 20
0
 30
0
 70
128
 71
1
 72
6
 73
8
 74
3
 0
SEQEND
 0
POLYLINE
 8
CUBE_4
 66
1
 10
0.0
 20
0.0
 30
0.0
 70
64
 71
8
 72
5
 0
VERTEX
 8
CUBE_4
 10
8.7154
 20
-7.4444
 30
6.8511
 70
192
 0
VERTEX
 8
CUBE_4
 10
8.7154
 20
-7.4444
 30
7.5802
 70
192
 0
VERTEX
 8
CUBE_4
 10
8.2855
 20
-7.4444
 30
6.8511
 70
192
 0
VERTEX
 8
CUBE_4
 10
8.2855
 20
-7.4444
 30
7.5802
 70
192
 0
VERTEX
 8
CUBE_4
 10
8.7154
 20
-7.5405
 30
7.5802
 70
192
 0
VERTEX
 8
CUBE_4
 10
8.7154
 20
-7.5405
 30
6.8511
 70
192
 0
VERTEX
 8
CUBE_4
 10
8.2855
 20
-7.5405
 30
7.5802
 70
192
 0
VERTEX
 8
CUBE_4
 10
8.2855
 20
-7.5405
 30
6.8511
 70
192
 0
VERTEX
 8
CUBE_4
 10
0
 20
0
 30
0
 70
128
 71
2
 72
5
 73
6
 74
1
 0
VERTEX
 8
CUBE_4
 10
0
 20
0
 30
0
 70
128
 71
2
 72
1
 73
3
 74
4
 0
VERTEX
 8
CUBE_4
 10
0
 20
0
 30
0
 70
128
 71
3
 72
8
 73
7
 74
4
 0
VERTEX
 8
CUBE_4
 10
0
 20
0
 30
0
 70
128
 71
4
 72
7
 73
5
 74
2
 0
VERTEX
 8
CUBE_4
 10
0
 20
0
 30
0
 70
128
 71
1
 72
6
 73
8
 74
3
 0
SEQEND
 0
POLYLINE
 8
CUBE_3
 66
1
 10
0.0
 20
0.0
 30
0.0
 70
64
 71
8
 72
5
 0
VERTEX
 8
CUBE_3
 10
9.6887
 20
-6.9014
 30
6.8511
 70
192
 0
VERTEX
 8
CUBE_3
 10
9.6887
 20
-6.9014
 30
7.5802
 70
192
 0
VERTEX
 8
CUBE_3
 10
9.6887
 20
-6.4962
 30
6.8511
 70
192
 0
VERTEX
 8
CUBE_3
 10
9.6887
 20
-6.4962
 30
7.5802
 70
192
 0
VERTEX
 8
CUBE_3
 10
9.7614
 20
-6.9014
 30
7.5802
 70
192
 0
VERTEX
 8
CUBE_3
 10
9.7614
 20
-6.9014
 30
6.8511
 70
192
 0
VERTEX
 8
CUBE_3
 10
9.7614
 20
-6.4962
 30
7.5802
 70
192
 0
VERTEX
 8
CUBE_3
 10
9.7614
 20
-6.4962
 30
6.8511
 70
192
 0
VERTEX
 8
CUBE_3
 10
0
 20
0
 30
0
 70
128
 71
1
 72
6
 73
5
 74
2
 0
VERTEX
 8
CUBE_3
 10
0
 20
0
 30
0
 70
128
 71
4
 72
7
 73
8
 74
3
 0
VERTEX
 8
CUBE_3
 10
0
 20
0
 30
0
 70
128
 71
4
 72
3
 73
1
 74
2
 0
VERTEX
 8
CUBE_3
 10
0
 20
0
 30
0
 70
128
 71
2
 72
5
 73
7
 74
4
 0
VERTEX
 8
CUBE_3
 10
0
 20
0
 30
0
 70
128
 71
3
 72
8
 73
6
 74
1
 0
SEQEND
 0
POLYLINE
 8
CUBE_2_1
 66
1
 10
0.0
 20
0.0
 30
0.0
 70
64
 71
8
 72
5
 0
VERTEX
 8
CUBE_2_1
 10
9.6887
 20
-5.7805
 30
6.8511
 70
192
 0
VERTEX
 8
CUBE_2_1
 10
9.6887
 20
-5.7805
 30
7.5802
 70
192
 0
VERTEX
 8
CUBE_2_1
 10
9.6887
 20
-5.3754
 30
6.8511
 70
192
 0
VERTEX
 8
CUBE_2_1
 10
9.6887
 20
-5.3754
 30
7.5802
 70
192
 0
VERTEX
 8
CUBE_2_1
 10
9.7614
 20
-5.7805
 30
7.5802
 70
192
 0
VERTEX
 8
CUBE_2_1
 10
9.7614
 20
-5.7805
 30
6.8511
 70
192
 0
VERTEX
 8
CUBE_2_1
 10
9.7614
 20
-5.3754
 30
7.5802
 70
192
 0
VERTEX
 8
CUBE_2_1
 10
9.7614
 20
-5.3754
 30
6.8511
 70
192
 0
VERTEX
 8
CUBE_2_1
 10
0
 20
0
 30
0
 70
128
 71
1
 72
6
 73
5
 74
2
 0
VERTEX
 8
CUBE_2_1
 10
0
 20
0
 30
0
 70
128
 71
4
 72
7
 73
8
 74
3
 0
VERTEX
 8
CUBE_2_1
 10
0
 20
0
 30
0
 70
128
 71
4
 72
3
 73
1
 74
2
 0
VERTEX
 8
CUBE_2_1
 10
0
 20
0
 30
0
 70
128
 71
2
 72
5
 73
7
 74
4
 0
VERTEX
 8
CUBE_2_1
 10
0
 20
0
 30
0
 70
128
 71
3
 72
8
 73
6
 74
1
 0
SEQEND
 0
POLYLINE
 8
CUBE_1_1
 66
1
 10
0.0
 20
0.0
 30
0.0
 70
64
 71
8
 72
5
 0
VERTEX
 8
CUBE_1_1
 10
9.6887
 20
-6.9018
 30
5.4884
 70
192
 0
VERTEX
 8
CUBE_1_1
 10
9.6887
 20
-6.9018
 30
6.2175
 70
192
 0
VERTEX
 8
CUBE_1_1
 10
9.6887
 20
-6.4967
 30
5.4884
 70
192
 0
VERTEX
 8
CUBE_1_1
 10
9.6887
 20
-6.4967
 30
6.2175
 70
192
 0
VERTEX
 8
CUBE_1_1
 10
9.7614
 20
-6.9018
 30
6.2175
 70
192
 0
VERTEX
 8
CUBE_1_1
 10
9.7614
 20
-6.9018
 30
5.4884
 70
192
 0
VERTEX
 8
CUBE_1_1
 10
9.7614
 20
-6.4967
 30
6.2175
 70
192
 0
VERTEX
 8
CUBE_1_1
 10
9.7614
 20
-6.4967
 30
5.4884
 70
192
 0
VERTEX
 8
CUBE_1_1
 10
0
 20
0
 30
0
 70
128
 71
1
 72
6
 73
5
 74
2
 0
VERTEX
 8
CUBE_1_1
 10
0
 20
0
 30
0
 70
128
 71
4
 72
7
 73
8
 74
3
 0
VERTEX
 8
CUBE_1_1
 10
0
 20
0
 30
0
 70
128
 71
4
 72
3
 73
1
 74
2
 0
VERTEX
 8
CUBE_1_1
 10
0
 20
0
 30
0
 70
128
 71
2
 72
5
 73
7
 74
4
 0
VERTEX
 8
CUBE_1_1
 10
0
 20
0
 30
0
 70
128
 71
3
 72
8
 73
6
 74
1
 0
SEQEND
 0
POLYLINE
 8
CUBE_12
 66
1
 10
0.0
 20
0.0
 30
0.0
 70
64
 71
8
 72
5
 0
VERTEX
 8
CUBE_12
 10
9.6887
 20
-5.7852
 30
5.4884
 70
192
 0
VERTEX
 8
CUBE_12
 10
9.6887
 20
-5.7852
 30
6.2175
 70
192
 0
VERTEX
 8
CUBE_12
 10
9.6887
 20
-5.3801
 30
5.4884
 70
192
 0
VERTEX
 8
CUBE_12
 10
9.6887
 20
-5.3801
 30
6.2175
 70
192
 0
VERTEX
 8
CUBE_12
 10
9.7614
 20
-5.7852
 30
6.2175
 70
192
 0
VERTEX
 8
CUBE_12
 10
9.7614
 20
-5.7852
 30
5.4884
 70
192
 0
VERTEX
 8
CUBE_12
 10
9.7614
 20
-5.3801
 30
6.2175
 70
192
 0
VERTEX
 8
CUBE_12
 10
9.7614
 20
-5.3801
 30
5.4884
 70
192
 0
VERTEX
 8
CUBE_12
 10
0
 20
0
 30
0
 70
128
 71
1
 72
6
 73
5
 74
2
 0
VERTEX
 8
CUBE_12
 10
0
 20
0
 30
0
 70
128
 71
4
 72
7
 73
8
 74
3
 0
VERTEX
 8
CUBE_12
 10
0
 20
0
 30
0
 70
128
 71
4
 72
3
 73
1
 74
2
 0
VERTEX
 8
CUBE_12
 10
0
 20
0
 30
0
 70
128
 71
2
 72
5
 73
7
 74
4
 0
VERTEX
 8
CUBE_12
 10
0
 20
0
 30
0
 70
128
 71
3
 72
8
 73
6
 74
1
 0
SEQEND
 0
POLYLINE
 8
CHIMENEY_1
 66
1
 10
0.0
 20
0.0
 30
0.0
 70
64
 71
24
 72
22
 0
VERTEX
 8
CHIMENEY_1
 10
8.2213
 20
-7.2181
 30
7.4979
 70
192
 0
VERTEX
 8
CHIMENEY_1
 10
8.2213
 20
-7.2181
 30
8.4759
 70
192
 0
VERTEX
 8
CHIMENEY_1
 10
8.7689
 20
-7.2181
 30
7.4979
 70
192
 0
VERTEX
 8
CHIMENEY_1
 10
8.7689
 20
-7.2181
 30
8.4759
 70
192
 0
VERTEX
 8
CHIMENEY_1
 10
8.7689
 20
-6.6705
 30
7.4979
 70
192
 0
VERTEX
 8
CHIMENEY_1
 10
8.7689
 20
-6.6705
 30
8.4759
 70
192
 0
VERTEX
 8
CHIMENEY_1
 10
8.2213
 20
-6.6705
 30
7.4979
 70
192
 0
VERTEX
 8
CHIMENEY_1
 10
8.2213
 20
-6.6705
 30
8.4759
 70
192
 0
VERTEX
 8
CHIMENEY_1
 10
8.1338
 20
-7.3056
 30
8.4759
 70
192
 0
VERTEX
 8
CHIMENEY_1
 10
8.8564
 20
-7.3056
 30
8.4759
 70
192
 0
VERTEX
 8
CHIMENEY_1
 10
8.8564
 20
-6.583
 30
8.4759
 70
192
 0
VERTEX
 8
CHIMENEY_1
 10
8.1338
 20
-6.583
 30
8.4759
 70
192
 0
VERTEX
 8
CHIMENEY_1
 10
8.1338
 20
-7.3056
 30
8.7793
 70
192
 0
VERTEX
 8
CHIMENEY_1
 10
8.8564
 20
-7.3056
 30
8.7793
 70
192
 0
VERTEX
 8
CHIMENEY_1
 10
8.8564
 20
-6.583
 30
8.7793
 70
192
 0
VERTEX
 8
CHIMENEY_1
 10
8.1338
 20
-6.583
 30
8.7793
 70
192
 0
VERTEX
 8
CHIMENEY_1
 10
8.2061
 20
-7.2333
 30
8.7793
 70
192
 0
VERTEX
 8
CHIMENEY_1
 10
8.7842
 20
-7.2333
 30
8.7793
 70
192
 0
VERTEX
 8
CHIMENEY_1
 10
8.7842
 20
-6.6552
 30
8.7793
 70
192
 0
VERTEX
 8
CHIMENEY_1
 10
8.2061
 20
-6.6552
 30
8.7793
 70
192
 0
VERTEX
 8
CHIMENEY_1
 10
8.2061
 20
-7.2333
 30
8.5146
 70
192
 0
VERTEX
 8
CHIMENEY_1
 10
8.7842
 20
-7.2333
 30
8.5146
 70
192
 0
VERTEX
 8
CHIMENEY_1
 10
8.7842
 20
-6.6552
 30
8.5146
 70
192
 0
VERTEX
 8
CHIMENEY_1
 10
8.2061
 20
-6.6552
 30
8.5146
 70
192
 0
VERTEX
 8
CHIMENEY_1
 10
0
 20
0
 30
0
 70
128
 71
1
 72
2
 73
4
 74
3
 0
VERTEX
 8
CHIMENEY_1
 10
0
 20
0
 30
0
 70
128
 71
3
 72
4
 73
6
 74
5
 0
VERTEX
 8
CHIMENEY_1
 10
0
 20
0
 30
0
 70
128
 71
5
 72
6
 73
8
 74
7
 0
VERTEX
 8
CHIMENEY_1
 10
0
 20
0
 30
0
 70
128
 71
7
 72
8
 73
2
 74
1
 0
VERTEX
 8
CHIMENEY_1
 10
0
 20
0
 30
0
 70
128
 71
21
 72
24
 73
23
 74
22
 0
VERTEX
 8
CHIMENEY_1
 10
0
 20
0
 30
0
 70
128
 71
7
 72
1
 73
3
 74
5
 0
VERTEX
 8
CHIMENEY_1
 10
0
 20
0
 30
0
 70
128
 71
2
 72
9
 73
10
 74
4
 0
VERTEX
 8
CHIMENEY_1
 10
0
 20
0
 30
0
 70
128
 71
4
 72
10
 73
11
 74
6
 0
VERTEX
 8
CHIMENEY_1
 10
0
 20
0
 30
0
 70
128
 71
6
 72
11
 73
12
 74
8
 0
VERTEX
 8
CHIMENEY_1
 10
0
 20
0
 30
0
 70
128
 71
8
 72
12
 73
9
 74
2
 0
VERTEX
 8
CHIMENEY_1
 10
0
 20
0
 30
0
 70
128
 71
9
 72
13
 73
14
 74
10
 0
VERTEX
 8
CHIMENEY_1
 10
0
 20
0
 30
0
 70
128
 71
10
 72
14
 73
15
 74
11
 0
VERTEX
 8
CHIMENEY_1
 10
0
 20
0
 30
0
 70
128
 71
11
 72
15
 73
16
 74
12
 0
VERTEX
 8
CHIMENEY_1
 10
0
 20
0
 30
0
 70
128
 71
12
 72
16
 73
13
 74
9
 0
VERTEX
 8
CHIMENEY_1
 10
0
 20
0
 30
0
 70
128
 71
13
 72
17
 73
18
 74
14
 0
VERTEX
 8
CHIMENEY_1
 10
0
 20
0
 30
0
 70
128
 71
14
 72
18
 73
19
 74
15
 0
VERTEX
 8
CHIMENEY_1
 10
0
 20
0
 30
0
 70
128
 71
15
 72
19
 73
20
 74
16
 0
VERTEX
 8
CHIMENEY_1
 10
0
 20
0
 30
0
 70
128
 71
16
 72
20
 73
17
 74
13
 0
VERTEX
 8
CHIMENEY_1
 10
0
 20
0
 30
0
 70
128
 71
17
 72
21
 73
22
 74
18
 0
VERTEX
 8
CHIMENEY_1
 10
0
 20
0
 30
0
 70
128
 71
18
 72
22
 73
23
 74
19
 0
VERTEX
 8
CHIMENEY_1
 10
0
 20
0
 30
0
 70
128
 71
19
 72
23
 73
24
 74
20
 0
VERTEX
 8
CHIMENEY_1
 10
0
 20
0
 30
0
 70
128
 71
20
 72
24
 73
21
 74
17
 0
SEQEND
 0
ENDSEC
 0
EOF
